<?xml version="1.0" encoding="UTF-8"?><svg id="b" xmlns="http://www.w3.org/2000/svg" width="289.687" height="352.67" viewBox="0 0 289.687 352.67"><defs><style>.i{fill:#211715;}.j{fill:#fff;}.k{fill:none;}.l{fill:#7abee6;}.m{fill:#645d5c;}</style></defs><g id="c"><g id="d"><path class="m" d="M141.169,168.052c-8.186,2.142-14.236,4.145-14.236,4.145-15.911,3.376-26.701-7.547-26.611-17.507.055-6.093,1.474-16.069,3.151-22.059,2.451-8.754,4.202-24.16,4.197-45.519-1.046-31.513,7.244-54.366,20.313-66.878,7.878-7.542,25.63-17.817,45.575-17.817,12.165,0,20.729,2.212,28.952,5.546l2.594,1.052c2.63,1.428,5.261,2.856,5.261,2.856,4.693,2.548,5.946,4.489,10.258,8.649,9.973,9.621,16.903,26.931,18.007,42.433.318,4.472,1.05,16.107.346,24.16.354,26.611,5.26,41.505,7.792,48.836,2.031,5.88,3.02,10.578,3.075,16.67.09,9.96-12.289,22.858-26.521,17.753,0,0-33.397-7.009-50.301-7.421-9.208-.225-22.058,2.539-31.852,5.102Z"/><path class="j" d="M130.78,170.628c.928-.317,16.176-7.448,16.495-7.564,4.821-1.741,4.63-4.84,5.238-8.307.499-2.847.843-5.384.992-8.327-5.953-2.796-11.447-7.395-16.255-13.149-5.349-6.402-8.275-13.553-9.951-19.754-.361.035-.585.055-.585.055-3.001.75-5.364-.76-7.037-2.094-2.178-1.761-3.744-4.074-4.946-6.491-2.468-4.961-3.54-10.508-3.068-15.952.129-1.381.354-2.797,1.051-4.04.987-1.772,2.95-3.073,5.107-3.395,2.156-.322,4.463.357,6.019,1.761l1.476,1.061c9.937-9.277,26.501-24.88,35.409-33.63-.621,5.246-3.92,16.351-.42,15.309,14.721-4.205,26.574-12.81,35.909-24.949,1.96,6.527,4.434,15.772,6.708,20.037,3.117,5.845,11.884,21.52,20.864,25.013,1.402-2.187,4.33-3.347,7.024-2.945,2.156.322,4.12,1.623,5.107,3.395.697,1.243.923,2.659,1.051,4.04.472,5.444-.601,10.991-3.068,15.952-1.202,2.417-2.768,4.73-4.946,6.491-1.75,1.396-4.913,1.296-7.109,1.685-.425,1.488-.862,2.72-1.092,3.419-1.72,4.67-11.394,21.295-23.528,27.25.125,3.104.483,6.185,1.021,9.256.608,3.467.417,6.567,5.238,8.307.319.115,13.991,6.62,14.479,6.821,0,0-20.1,20.139-47.038,20.139s-40.144-19.396-40.144-19.396Z"/><path class="i" d="M226.488,86.727c2.163-1.841,5.94-1.414,7.356,1.149.816,1.476.812,3.4.831,5.039.022,1.931-.148,3.852-.541,5.743-.754,3.625-2.145,7.315-4.414,10.278-.838,1.094-1.857,2.338-3.203,2.775-1.593.518-3.369.522-5.015.758-1.284.184-1.989,1.816-1.676,2.952.379,1.38,1.664,1.861,2.952,1.676,1.555-.223,3.143-.27,4.671-.663,1.844-.474,3.273-1.504,4.58-2.859,2.639-2.736,4.415-6.226,5.661-9.786,1.31-3.74,1.925-7.799,1.761-11.76-.161-3.892-1.109-7.59-4.597-9.781-3.726-2.34-8.491-1.7-11.762,1.084-.988.841-.865,2.529,0,3.394.978.978,2.404.843,3.394,0h0Z"/><path class="i" d="M220.579,108.348c-.074,2.187-.585,4.317-1.212,6.406-.24.799-.503,1.59-.768,2.381-.083.247-.565,1.423-.253.733-.967,2.138-2.102,4.189-3.333,6.187-3.624,5.884-8.027,11.437-13.417,15.801-2.911,2.357-6.2,4.221-9.828,5.057-3.009.693-1.735,5.323,1.276,4.629,7.543-1.738,13.82-7.253,18.745-12.975,4.099-4.762,7.913-10.121,10.519-15.866,1.733-3.82,2.93-8.161,3.071-12.353.104-3.09-4.696-3.086-4.8,0h0Z"/><path class="i" d="M125.537,81.674c-3.02-2.571-7.116-3.264-10.76-1.611-3.851,1.747-5.261,5.447-5.549,9.424-.556,7.681,1.815,16.374,7.09,22.129,2.857,3.118,6.738,5.213,11.034,4.281,3.017-.655,1.74-5.283-1.276-4.629s-5.816-2.096-7.406-4.324c-2.143-3.003-3.5-6.561-4.218-10.163-.363-1.821-.514-3.67-.496-5.526.016-1.639.016-3.565.831-5.039,1.416-2.562,5.193-2.99,7.356-1.149.986.84,2.426.968,3.394,0,.861-.861.991-2.55,0-3.394h0Z"/><path class="i" d="M122.785,102.214c.931,7.619,2.612,15.042,5.895,22.022,4.12,8.759,10.969,16.499,19.099,21.752,4.237,2.738,9.019,4.732,14.023,5.474,1.281.19,2.58-.32,2.952-1.676.311-1.131-.386-2.761-1.676-2.952-8.521-1.264-15.749-6.207-21.569-12.364-6.009-6.357-9.971-14.015-12.128-22.465-.462-1.811-.847-3.642-1.166-5.484-.138-.798-.264-1.599-.38-2.4-.024-.165-.047-.331-.07-.496-.111-.795.057.455-.042-.311-.047-.366-.093-.733-.138-1.099-.157-1.286-.991-2.4-2.4-2.4-1.175,0-2.558,1.105-2.4,2.4h0Z"/><path class="i" d="M194.073,42.384c2.142,7.208,3.826,14.885,7.574,21.471,3.384,5.948,7.447,11.763,12.327,16.582,2.679,2.645,5.758,5.1,9.392,6.256,2.95.939,4.213-3.694,1.276-4.629-2.396-.763-4.811-2.658-6.793-4.555-2.47-2.364-4.67-5.01-6.679-7.771-3.534-4.856-6.584-9.872-8.508-15.578-1.452-4.309-2.665-8.695-3.96-13.053-.878-2.954-5.512-1.696-4.629,1.276h0Z"/><path class="i" d="M194.489,39.502c-5.395,6.974-11.843,13.095-19.425,17.64-3.682,2.208-7.572,4.045-11.625,5.46-.995.347-1.997.671-3.007.972-.155.046-.606.117-.765.223-.278.186.063-.041.225-.017.28.041.526.076.769.225.026.016.711.785.468.45.357.492.028.224.007-.115-.025-.424.008.042.012.109-.009-.131-.023-.265-.024-.396-.002-.718.031-1.427.107-2.141.365-3.429,1.437-7.422,1.893-11.11.268-2.166-2.743-3.026-4.097-1.697-9.642,9.467-19.43,18.856-29.886,27.428-1.003.822-.853,2.541,0,3.394.992.992,2.389.824,3.394,0,10.456-8.572,20.244-17.961,29.886-27.428l-4.097-1.697c-.09.731.043-.271-.027.191-.032.213-.065.425-.1.637-.06.363-.124.726-.19,1.088-.179.987-.374,1.972-.565,2.957-.383,1.981-.749,3.965-.982,5.969-.167,1.441-.288,3.014.169,4.416.595,1.826,2.283,2.816,4.167,2.402,4.655-1.022,9.335-3.191,13.531-5.4,4.285-2.256,8.294-5.002,12.017-8.097,4.294-3.57,8.124-7.657,11.539-12.07.792-1.024.998-2.396,0-3.394-.826-.826-2.596-1.031-3.394,0h0Z"/><path class="i" d="M203.147,5.648C192.928,1.526,181.94-.423,170.912.077c-11.218.508-22.241,3.967-32.027,9.414-7.349,4.091-13.755,9.332-18.727,16.14-5.176,7.087-8.668,15.369-10.981,23.799-3.353,12.221-4.308,25.052-3.907,37.681.098,3.081,4.898,3.095,4.8,0-.61-19.197,1.764-39.967,12.434-56.444,4.021-6.21,9.335-11.23,15.661-15.179,8.674-5.414,18.642-9.192,28.836-10.309,11.873-1.301,23.837.647,34.87,5.097,1.203.485,2.637-.528,2.952-1.676.377-1.371-.469-2.465-1.676-2.952h0Z"/><path class="i" d="M241.375,87.111c.485-5.743.33-11.542.061-17.292-.24-5.148-.565-10.289-1.517-15.363-2.193-11.683-6.989-23.388-14.702-32.527-2.008-2.379-4.306-4.516-6.509-6.711-2.144-2.136-4.475-3.959-7.132-5.42-2.708-1.49-5.133,2.654-2.423,4.145,2.12,1.166,3.968,2.521,5.696,4.21,1.951,1.908,3.946,3.812,5.789,5.823,3.674,4.009,6.53,8.738,8.85,13.639,2.487,5.254,4.295,10.846,5.487,16.532,1.002,4.78,1.352,9.606,1.602,14.472.315,6.146.516,12.351-.003,18.491-.109,1.293,1.181,2.4,2.4,2.4,1.389,0,2.29-1.103,2.4-2.4h0Z"/><path class="i" d="M105.27,87.111c-.004,8.752-.264,17.515-1.06,26.233-.533,5.843-1.262,11.678-2.715,17.384-1.814,7.125-3.126,14.364-3.503,21.723-.152,2.973.039,5.876,1.149,8.67,1.152,2.9,2.906,5.524,5.184,7.664,6.267,5.887,15.009,7.415,23.245,5.726,1.27-.26,2.003-1.762,1.676-2.952-.363-1.32-1.678-1.937-2.952-1.676-6.237,1.279-13.125.277-18.022-3.992-1.939-1.691-3.603-3.88-4.503-6.046-1.093-2.633-1.122-4.704-.968-7.564.371-6.884,1.626-13.611,3.323-20.276,1.405-5.52,2.147-11.218,2.715-16.877.935-9.304,1.226-18.668,1.23-28.015.001-3.089-4.799-3.094-4.8,0h0Z"/><path class="i" d="M236.575,87.111c.204,14.165,1.637,28.464,5.536,42.124,1.431,5.015,3.452,9.873,4.499,14.99.413,2.019.659,4.055.765,6.113.082,1.597.119,3.269-.149,4.537-.575,2.73-1.852,5.217-3.681,7.386-2.21,2.62-5.047,4.794-8.309,5.919-3.739,1.289-7.557,1.172-11.277-.123-1.224-.426-2.625.486-2.952,1.676-.363,1.322.448,2.525,1.676,2.952,7.444,2.592,15.327.804,21.339-4.146,2.557-2.105,4.744-4.823,6.193-7.806,1.55-3.192,2.13-6.416,1.98-9.949-.194-4.594-1.064-9.106-2.454-13.483-.667-2.101-1.422-4.173-2.083-6.276-1.61-5.121-2.863-10.348-3.805-15.632-1.664-9.33-2.343-18.813-2.479-28.282-.044-3.086-4.845-3.095-4.8,0h0Z"/><path class="i" d="M151.059,147.234c-.153,2.238-.443,4.448-.821,6.659-.228,1.333-.348,2.703-.717,4.008-.27.956-.65,1.658-1.703,2.277-.702.413-1.465.681-2.204,1.017-3.82,1.737-7.615,3.532-11.427,5.286-.985.453-1.97.905-2.958,1.351-.352.159-.705.314-1.057.472-.631.283.53-.19-.03.01-1.22.436-2.038,1.636-1.676,2.952.324,1.18,1.726,2.115,2.952,1.676,1.505-.538,2.959-1.293,4.409-1.958,2.344-1.076,4.684-2.161,7.025-3.246,1.728-.801,3.457-1.6,5.185-2.4.092-.043.354-.105.416-.188-.017.022-.918.366-.36.16.273-.101.541-.216.809-.331.507-.217,1.006-.445,1.474-.739,1.604-1.007,2.761-2.401,3.459-4.154.564-1.416.7-2.933.946-4.425.462-2.799.884-5.595,1.077-8.428.088-1.295-1.166-2.4-2.4-2.4-1.372,0-2.311,1.102-2.4,2.4h0Z"/><path class="i" d="M194.842,145.956c.212,4.084.756,8.192,1.533,12.208.674,3.482,2.84,5.78,6.1,7.075.949.377-.598-.302.074.023.254.123.512.238.768.358.806.378,1.611.758,2.416,1.138,2.181,1.03,4.36,2.063,6.54,3.095,1.488.704,2.963,1.46,4.477,2.105,1.191.508,2.572.356,3.284-.861.59-1.009.338-2.773-.861-3.284-3.211-1.369-6.336-2.985-9.491-4.478-1.532-.725-3.057-1.465-4.6-2.167-.781-.355-1.596-.628-2.32-1.098-.897-.583-1.236-1.181-1.5-2.078-.434-1.475-.57-3.051-.822-4.565-.411-2.475-.67-4.967-.8-7.472-.16-3.073-4.961-3.092-4.8,0h0Z"/><path class="j" d="M247.011,350.27s-72.621,0-145.175,0l.124-.701.298-1.682c.373-2.333,8.616-41.542,8.589-53.18,0-1.332-.186-6.696-.446-13.122-.27.385-.427.608-.427.608l-5.894,9.29c-1.674,3.587-6.575,10.359-10.443,14.754-3.916,4.449-4.631,5.743-10.08,10.015-8.519,6.68-19.366,9.444-29.828,2.718-10.236-6.58-12.371-17.236-15.858-27.219-6.865-19.652-13.121-51.58-14.494-61.595,4.791-1.896,31.512-11.269,34.485-11.355,1.194,2.474,6.155,18.01,10.666,31.577.553-2.278,3.053-9.584,4.226-12.047,3.383-10.732,6.483-25.651,8.94-32.638,2.221-6.316,6.888-13.871,11.413-17.759,10.678-7.822,31.111-15.195,45.728-20.535,0,0,.194-.071.56-.209,2.354-3.253,5.033-6.216,7.854-8.701,3.014,8.242,5.362,14.118,8.984,22.111,6.954,15.344,13.812,30.071,20.726,45.15,11.359-18.34,22.208-47.834,25.623-68.193,2.9,2.09,5.703,4.895,8.159,8.132,15.03,6.321,26.748,12.46,40.194,19.768,2.58,1.4,5.422,2.881,7.468,4.163.724.394,3.315,1.953,3.735,2.426,3.957,3.306,7.158,9.708,8.772,15.471,2.473,8.829,11.661,50.313,14.337,65.662,2.542,14.578,3.671,31.782-3.437,37.708-5.235,4.451-12.46,5.982-19.321,5.607-6.964-.38-13.695-2.535-20.339-4.646-.137-1.8,3.576,28.804,4.57,36.131l.334,2.285"/><path class="l" d="M177.024,224.691c-2.387-5.204-4.768-10.368-7.148-15.532-4.309-9.346-8.765-19.011-13.186-28.765-.298-.658-.588-1.302-.869-1.933,2.022.795,4.724,1.462,7.888,1.946,3.645.557,7.748.852,11.865.852,9.23,0,17.016-1.462,21.296-3.954-5.177,17.788-12.525,35.333-19.845,47.386Z"/><path class="l" d="M196.05,178.32c-5.028,16.958-11.988,33.581-18.967,45.301-2.252-4.907-4.498-9.779-6.745-14.652-4.312-9.352-8.77-19.022-13.193-28.782-.131-.288-.26-.574-.387-.857,1.893.631,4.226,1.165,6.875,1.57,3.669.561,7.798.857,11.94.857,4.339,0,14.24-.366,20.477-3.438M197.724,176.143c-4.291,3.229-13.273,4.615-22.151,4.615-4.111,0-8.199-.297-11.789-.846-3.473-.531-6.48-1.298-8.59-2.259,0,0-.106-.016-.297-.045.425.967.87,1.961,1.337,2.991,6.954,15.344,13.813,30.071,20.726,45.151,8.181-13.198,15.841-32.33,20.764-49.607h0Z"/><path class="i" d="M239.96,313.296c1.351,10.446,2.583,20.906,3.924,31.353.268,2.087.551,4.171.856,6.253.188,1.284,1.813,1.989,2.952,1.676,1.377-.378,1.864-1.665,1.676-2.952-.115-.785-.228-1.57-.343-2.355.094.64-.039-.293-.083-.628-.064-.485-.127-.971-.189-1.456-.321-2.492-.634-4.986-.946-7.479-.733-5.853-1.455-11.707-2.184-17.56-.285-2.284-.568-4.569-.863-6.852-.166-1.285-.984-2.4-2.4-2.4-1.168,0-2.567,1.105-2.4,2.4h0Z"/><path class="k" d="M253.817,208.754c-3.048,24.007-7.598,53.706-12.662,87.931-.497,3.358,1.065,17.11,3.087,32.718"/><path class="i" d="M104.275,350.207c1.292-7.284,2.841-14.522,4.193-21.796,1.066-5.737,2.086-11.483,2.978-17.25.747-4.836,1.502-9.715,1.752-14.608.155-3.042-.057-6.11-.169-9.15-.198-5.359-.423-10.717-.667-16.074-.365-8.031-.679-16.048-1.779-24.017-1.54-11.157-3.371-22.326-5.661-33.355-.171-.823-.348-1.646-.54-2.464-.706-3.006-5.335-1.733-4.629,1.276,2.448,10.426,4.024,21.132,5.608,31.716.386,2.577.657,4.444.928,6.698.161,1.341.281,2.685.394,4.031.34,4.041.498,8.102.692,12.152.432,9.013.987,18.057,1.07,27.082.036,3.893-.581,8.207-1.068,11.651-.806,5.699-1.782,11.375-2.806,17.039-1.447,8.004-3.152,15.961-4.603,23.963-.11.609-.215,1.219-.323,1.829-.226,1.275.344,2.586,1.676,2.952,1.16.319,2.725-.393,2.952-1.676h0Z"/><path class="i" d="M211.012,168.389c8.59,3.666,17.014,7.691,25.304,11.99,7.514,3.896,15.143,7.757,22.358,12.187.586.36,1.186.717,1.737,1.131-.351-.264.036.046.159.157.389.349.771.697,1.134,1.073,1.278,1.326,2.311,2.849,3.23,4.439,1.739,3.008,2.983,6.239,3.881,9.589,1.099,4.099,2.045,8.242,3.002,12.375,2.864,12.369,5.577,24.776,8.14,37.211,2.606,12.641,5.715,25.746,4.67,38.725-.237,2.95-.799,6.216-2.071,8.735-.648,1.283-1.144,2.021-2.161,2.943-1.415,1.283-3.133,2.286-4.871,3.065-8.15,3.652-17.455,2.036-25.708-.317-2.258-.644-4.496-1.354-6.733-2.064-2.951-.937-4.214,3.695-1.276,4.629,9.267,2.943,18.812,5.763,28.618,4.191,4.3-.689,8.503-2.324,11.972-4.979,2.72-2.081,4.443-4.765,5.528-8.002,2.46-7.342,1.88-15.733,1.028-23.297-.708-6.281-1.873-12.49-3.106-18.685-2.561-12.873-5.362-25.702-8.271-38.501-1.135-4.996-2.279-9.993-3.527-14.962-1.608-6.402-3.93-12.784-8.341-17.824-2.108-2.409-4.844-3.96-7.583-5.543-4.122-2.382-8.363-4.579-12.561-6.823-8.274-4.424-16.639-8.676-25.19-12.542-2.302-1.041-4.616-2.054-6.939-3.046-1.191-.508-2.572-.356-3.284.861-.59,1.009-.338,2.772.861,3.284h0Z"/><path class="i" d="M102.037,352.67h144.974c3.089,0,3.094-4.8,0-4.8h-50.781c-21.602,0-43.203,0-64.805,0h-29.389c-3.089,0-3.094,4.8,0,4.8h0Z"/><path class="i" d="M179.307,226.515c4.988-8.166,9.066-16.867,12.71-25.704,3.757-9.109,7.003-18.447,9.59-27.956,1.315-4.834,2.454-9.719,3.29-14.659l-3.526,1.434c4.503,3.286,8.114,7.822,10.829,12.655,1.399,2.49,2.554,5.1,3.384,7.835.217.716.413,1.438.585,2.166.052.218.236,1.81.371,1.877-.157-.077.944-.88-.125-.307-.259.139-.525.263-.786.396-.736.373-1.465.758-2.197,1.139-2.741,1.426-.317,5.57,2.423,4.145,1.465-.762,3.357-1.41,4.484-2.661,1.414-1.57.967-3.605.549-5.47-.784-3.495-2.112-6.882-3.749-10.062-3.183-6.186-7.717-11.749-13.346-15.857-1.179-.86-3.282-.006-3.526,1.434-1.52,8.979-3.986,17.797-6.859,26.43-3.108,9.341-6.748,18.52-11.031,27.387-2.202,4.558-4.577,9.035-7.217,13.356-1.615,2.643,2.535,5.058,4.145,2.423h0Z"/><path class="i" d="M162.153,227.458c-4.25-4.383-8.581-8.699-12.657-13.248-1.75-1.953-3.441-3.956-5.082-6.001-.932-1.161-1.849-2.334-2.753-3.517-.541-.708-1.078-1.419-1.613-2.131-.549-.732-1.061-1.695-1.723-2.32.032.03-.225-.314-.231-.311l.022.502.184-.291c.333-.343.584-.858.868-1.244.491-.668,1.024-1.305,1.564-1.933,1.428-1.662,2.943-3.248,4.437-4.851,1.117-1.199.822-3.701-1.059-4.011-.946-.156-10.996-2.161-11.038-2.035.163.102.257.257.285.465.002-.164.027-.325.076-.484.14-.353.161-.802.245-1.17.179-.786.384-1.567.613-2.34.507-1.713,1.121-3.399,1.858-5.026,2.988-6.597,7.387-12.516,12.797-17.324l-4.011-1.059c4.683,12.792,10.312,25.134,15.992,37.506,5.99,13.046,12.036,26.066,17.981,39.132,2.882,6.333,5.943,12.54,6.399,19.595.434,6.697.109,13.416.105,20.12-.009,12.968.374,25.934.836,38.893.417,11.686,1.023,23.383,1.03,35.079.002,3.088,4.802,3.094,4.8,0-.006-10.184-.492-20.369-.865-30.545-.476-12.968-.909-25.939-.988-38.916-.041-6.781.206-13.568.046-20.345-.084-3.537-.225-7.101-1.009-10.565-.753-3.328-2.067-6.498-3.439-9.611-5.836-13.246-12.043-26.337-18.096-39.485-6.403-13.909-12.896-27.745-18.164-42.134-.635-1.734-2.596-2.316-4.011-1.059-6.375,5.665-11.441,12.868-14.606,20.785-.757,1.895-1.388,3.841-1.851,5.829-.518,2.221-1.012,4.5.833,6.26,1.566,1.494,4.44,1.535,6.475,1.921,2.139.406,4.282.788,6.43,1.142l-1.059-4.011c-2.659,2.854-5.524,5.685-7.619,9-.591.936-.953,1.987-.744,3.098.22,1.166.877,2.003,1.57,2.934,1.168,1.57,2.348,3.13,3.544,4.679,3.669,4.75,7.561,9.281,11.704,13.624,2.82,2.956,5.685,5.868,8.529,8.801,2.154,2.222,5.546-1.174,3.394-3.394h0Z"/><path class="i" d="M153.983,179.726c5.308,2.377,11.385,3.016,17.135,3.316,6.55.342,13.312.068,19.712-1.458,2.814-.671,5.755-1.634,8.106-3.368,1.042-.768,1.565-2.08.861-3.284-.601-1.027-2.235-1.635-3.284-.861-1.992,1.469-3.626,2.01-6.03,2.65-2.77.738-5.466,1.131-8.269,1.366-6.046.508-12.48.371-18.298-.57-1.477-.239-2.947-.531-4.394-.913-.598-.158-1.192-.331-1.779-.526-.304-.101-.606-.208-.905-.322-.096-.036-.191-.074-.286-.111-.622-.244.44.198-.146-.064-1.182-.529-2.58-.342-3.284.861-.6,1.025-.328,2.751.861,3.284h0Z"/><g id="e"><path class="j" d="M53.968,219.724c-7.144,2.073-21.603,7.106-28.061,9.479l-.513-1.43c-1.049-3.506-1.584-6.762-3.732-9.694s-4.881-5.645-7.242-8.375c-7.24-8.373-11.062-21.514-11.586-24.509-.39-1.47-.63-5.29.27-6.52.83-1.15,1.96-2.14,3.22-2.26,1.73-.16,3.88.41,4.8,1.02l1.091.724c-.031-.169-.056-.338-.077-.507-.297-2.366.57-4.994,2.594-6.254,1.151-.716,4.498-1.081,6.365.914-.191-1.172-.332-2.04-.332-2.04-.232-1.43-.456-5.397,1.288-7.084,1.51-1.461,4.48-2.579,5.885-1.957,1.12.495,2.109,1.002,3.005,1.731-.1-.304-.153-.47-.153-.47-2.646-8.303-5.462-18.383-6.216-21.522-.719-2.992-1.759-8.482,1.347-9.958,3.624-1.721,5.685.137,7.45,2.212,3.207,3.772,14.571,40.199,13.18,37.355.04,0,.078.009.107.009l.45.06c.23.04.46.07.69.12.15.02.3.05.45.09.16.03.32.07.48.11.31.07.61.16.91.25.76.24,1.47.55,2.12.95.09.04.18.1.26.16.73.47,1.36,1.05,1.87,1.76,2.55,3.58,3.44,8.49,3.82,11.92.23,2.09-.3,6.59-1.51,8.84-.82,1.56-3.63,9.94-3.6,10.57-.66,3.908.859,10.404,1.699,14.215-.108.031-.217.062-.328.095Z"/><path class="i" d="M12.336,175.361c-1.555-.953-3.58-1.377-5.386-1.375-2.171.002-4.001,1.062-5.346,2.728-1.899,2.353-1.895,6.214-1.104,9.037.692,2.47,2.786,4.676,4.299,6.675,2.068,2.733,4.134,6.076,7.585,7.173,1.93.613,4.363.435,5.998-.822,1.939-1.491,2.757-3.992,3.002-6.334.135-1.291-1.2-2.4-2.4-2.4-1.41,0-2.265,1.105-2.4,2.4-.051.489-.207,1.022-.408,1.469-.104.231-.338.651-.442.791-.022.029-.534.46-.191.238-.229.149-.509.187-.845.186-.302-.001-.519-.025-.635-.05-.135-.029-.271-.063-.402-.106-.073-.024-.365-.172-.153-.063-1.986-1.022-3.257-3.178-4.564-4.904-1.28-1.691-2.572-3.377-3.664-5.197-.166-.277-.12-.579-.058-.037-.014-.122-.089-.252-.113-.375-.037-.19-.077-.378-.11-.569-.004-.023-.051-.379-.02-.127.03.247-.02-.237-.023-.28-.044-.569-.076-1.138-.069-1.709.003-.263.017-.526.032-.788,0-.004.036-.421.008-.179-.024.208.039-.225.049-.268.046-.208.265-.714.031-.3.127-.225.236-.37.415-.566.365-.4.772-.769,1.252-.838.335-.048,1.09.045,1.562.144.758.16,1.257.334,1.677.591,2.641,1.618,5.055-2.532,2.423-4.145h0Z"/><path class="i" d="M.52,185.831c.838,4.644,2.73,9.243,4.684,13.507,1.407,3.071,3.033,6.056,4.989,8.814,2.257,3.183,5.025,5.918,7.563,8.867,1.317,1.531,2.592,3.109,3.385,4.985.867,2.05,1.313,4.276,1.94,6.405.871,2.957,5.505,1.698,4.629-1.276-1.112-3.776-1.936-7.594-4.367-10.793-2.453-3.229-5.391-6.026-7.929-9.179-3.897-4.841-6.583-10.753-8.576-16.603-.667-1.958-1.321-3.964-1.689-6.004-.23-1.276-1.784-1.997-2.952-1.676-1.344.369-1.907,1.672-1.676,2.952h0Z"/><path class="i" d="M22.812,170.631c-2.63-2.624-7.311-3.031-10.211-.625-3.567,2.959-3.315,8.039-1.851,11.996.836,2.261,2.066,4.345,3.202,6.463,1.032,1.923,1.996,3.904,3.294,5.665,2.483,3.368,7.03,7.009,11.388,4.707,2.995-1.582,4.237-5.144,4.04-8.371-.188-3.069-4.989-3.09-4.8,0,.024.395.014.787,0,1.182-.009.138-.02.275-.035.412.035-.234.038-.26.008-.08-.05.279-.108.556-.185.83-.204.719-.736,1.927-1.862,1.951-1.576.033-3.141-1.554-4.065-2.635-1.227-1.437-2.075-3.171-2.963-4.826-1.055-1.966-2.26-3.911-3.148-5.961-.666-1.537-1.334-3.499-1.124-5.209.089-.725.35-1.479.796-2.065.18-.237.416-.425.648-.599.221-.116.207-.119-.044-.007.147-.053.295-.098.447-.136.927-.201,2.188-.181,3.072.701,2.19,2.184,5.585-1.209,3.394-3.394h0Z"/><path class="i" d="M36.882,168.073c-.989-2.651-2.249-5.243-4.518-7.027-2.135-1.679-4.564-2.813-7.308-2.133-2.957.733-5.594,2.69-6.425,5.698-.534,1.934-.678,4.48-.139,6.445.83,3.025,2.354,6.01,3.593,8.876,1.443,3.338,2.829,7.005,4.988,9.963,2.012,2.757,5.769,4.523,9.168,3.675,3.598-.897,5.847-4.341,6.062-7.903.187-3.085-4.614-3.074-4.8,0-.106,1.752-1.558,3.57-3.457,3.305-.947-.133-1.854-.656-2.555-1.286.026.024-.734-.77-.386-.361.279.328-.211-.315-.298-.45-1.676-2.598-2.898-5.534-4.137-8.355-1.127-2.566-2.156-5-3.2-7.77-.114-.303-.224-.607-.331-.913-.021-.06-.034-.122-.054-.182-.043-.127.051.657.004.024-.019-.249-.045-.497-.058-.747-.077-1.459-.105-3.423,1.002-4.305.875-.697,1.9-.947,2.899-1.176.463-.106.299.044.147.009-.282-.065.402.185.503.234.425.209.843.432,1.243.685,1.546.979,2.685,2.973,3.429,4.968.453,1.214,1.624,2.041,2.952,1.676,1.166-.321,2.131-1.732,1.676-2.952h0Z"/><path class="i" d="M48.882,169.517c-.915-3.796-2.201-7.528-3.398-11.241-1.776-5.51-3.62-11.004-5.647-16.427-.853-2.282-1.738-4.556-2.735-6.78-.706-1.575-1.468-2.981-2.659-4.25-2.785-2.967-7.237-3.994-10.637-1.274-2.916,2.333-2.574,6.613-2.002,9.898.55,3.155,1.517,6.258,2.385,9.336,1.355,4.804,2.774,9.591,4.286,14.348.933,2.933,5.568,1.68,4.629-1.276-2.18-6.856-4.256-13.77-6.023-20.745-.573-2.261-1.342-5.091-.649-7.196.088-.267.246-.563.354-.634.565-.373,1.391-.626,2.074-.537,1.114.144,1.904,1.229,2.712,2.06.412.424-.153-.317-.078-.112.035.095.133.192.185.281.15.255.299.509.437.77.374.707.705,1.436,1.026,2.169.089.204.177.408.264.613.107.25-.037-.088-.048-.114.053.127.106.253.158.381.207.506.412,1.013.613,1.521.432,1.094.85,2.194,1.259,3.298,1.862,5.019,3.573,10.095,5.223,15.188,1.284,3.963,2.666,7.947,3.643,12.002.723,3.002,5.353,1.731,4.629-1.276h0Z"/><path class="i" d="M56.612,218.997c-.727-3.289-1.525-6.606-1.73-9.978-.048-.795-.067-1.595-.018-2.391.023-.381.054-.594.091-.894.12-.986-.152.407.007.007.325-.822.493-1.751.763-2.596.735-2.296,1.509-4.59,2.413-6.826.055-.135-.194.377.034-.062.1-.192.195-.387.287-.583.385-.825.694-1.681.923-2.562.448-1.723.696-3.541.765-5.319.127-3.299-.647-6.903-1.748-9.998-1.37-3.853-3.441-7.096-7.379-8.631-3.819-1.489-8.211-1.273-12.22-.977-2.008.149-4.105.278-6.045.853-1.923.57-3.196,1.609-4.071,3.421-1.07,2.213-1.239,4.494-.199,6.754.855,1.856,2.243,3.044,4.268,3.413,1.418.258,4.066.059,4.94,1.422.437.68.502,1.802.717,2.579.34,1.226.674,2.442.854,3.704.184,1.284,1.816,1.988,2.952,1.676,1.38-.379,1.86-1.664,1.676-2.952-.277-1.937-.859-3.86-1.372-5.747-.455-1.673-1.554-3.148-3.08-3.994-1.579-.876-3.365-.991-5.11-1.267-.29-.046-.576-.099-.862-.166-.352-.082-.087.057-.368-.13.392.262-.06-.147-.189-.396-.174-.336-.347-.697-.384-1.081-.053-.547.167-1.097.396-1.58.121-.255.515-.896.515-.896-.296.255.158.01.269-.029,1.565-.546,3.271-.646,4.91-.769,3.512-.265,7.386-.607,10.757.654,3.006,1.124,4.191,4.404,4.972,7.27.746,2.737,1.206,5.543.884,8.377-.274,2.418-1.166,4.279-2.017,6.483-.831,2.153-1.574,4.346-2.266,6.548-.242.769-.511,1.549-.657,2.344-.04.216-.06.45-.089.667-.006.046.103-.791-.006.044-.061.467-.116.932-.14,1.403-.043.863-.014,1.73.051,2.591.274,3.68,1.083,7.297,1.877,10.892.666,3.015,5.295,1.739,4.629-1.276h0Z"/></g><path class="i" d="M70.82,251.105c.678-2.791,1.694-5.529,2.682-8.222.252-.688.51-1.374.779-2.056.293-.74.224-.549.547-1.284.844-1.925,1.309-4.082,1.873-6.104,2.152-7.721,3.877-15.559,6.101-23.26,2.091-7.239,5.617-14.474,11.123-19.746,2.417-2.314,5.745-3.94,8.68-5.5,3.541-1.881,7.183-3.57,10.86-5.166,8.528-3.701,17.281-6.865,26.009-10.054,1.217-.445,2.04-1.629,1.676-2.952-.322-1.173-1.729-2.123-2.952-1.676-7.971,2.912-15.948,5.819-23.776,9.1-7.396,3.099-14.909,6.383-21.528,10.968-3.394,2.351-5.98,5.752-8.204,9.19-2.299,3.553-4.21,7.405-5.551,11.422-2.476,7.418-4.06,15.141-6.062,22.694-.612,2.309-1.244,4.613-1.923,6.902-.513,1.73-1.074,3.07-1.753,4.839-1.205,3.137-2.414,6.359-3.209,9.63-.729,3.001,3.898,4.281,4.629,1.276h0Z"/><path class="i" d="M77.873,269.421c-.083-.168-.163-.337-.241-.507-.066-.143-.36-.823-.197-.44s-.146-.357-.206-.508c-.121-.301-.24-.603-.357-.906-.577-1.488-1.121-2.989-1.655-4.493-1.416-3.985-2.763-7.994-4.1-12.006-2.8-8.404-5.505-16.84-8.342-25.232-.874-2.584-1.663-5.271-2.839-7.739-.343-.72-1.293-1.224-2.072-1.189-1.563.07-3.139.603-4.628,1.036-2.529.736-5.036,1.546-7.538,2.368-5.682,1.866-11.336,3.819-16.967,5.832-2.003.716-4.011,1.425-5.99,2.205-1.333.526-1.871,1.541-1.676,2.952,1.36,9.856,3.476,19.645,5.671,29.343,1.426,6.298,2.962,12.574,4.683,18.799,1.618,5.853,3.557,11.579,5.444,17.346,1.929,5.897,3.866,11.991,7.558,17.062,4.244,5.83,10.653,10.4,17.874,11.543,7.319,1.159,14.576-1.032,20.615-5.194,2.685-1.851,5.288-3.964,7.578-6.291,1.869-1.899,3.568-3.979,5.308-5.996,3.948-4.577,7.42-9.475,10.374-14.737,1.607-2.862,3.541-5.581,5.299-8.352l.58-.914c1.66-2.616-2.493-5.027-4.145-2.423s-3.299,5.199-4.948,7.799c-.706,1.113-1.295,2.253-1.955,3.393-1.559,2.691-3.381,5.238-5.259,7.713-1.83,2.413-3.832,4.675-5.807,6.969-1.593,1.85-3.224,3.634-5.07,5.239-4.932,4.29-10.765,8.013-17.483,8.324-6.787.314-13.192-2.968-17.614-8.008-3.864-4.404-5.86-10.06-7.664-15.536-1.816-5.511-3.712-10.988-5.311-16.568-1.723-6.011-3.252-12.078-4.674-18.167-2.351-10.071-4.509-20.224-6.104-30.446-.113-.724-.221-1.449-.321-2.175l-1.676,2.952c4.223-1.665,8.536-3.123,12.823-4.609,5.51-1.909,11.033-3.805,16.618-5.484,1.022-.307,2.048-.609,3.082-.874.364-.093.729-.185,1.098-.26.15-.03.315-.042.461-.086.323-.097-.765.066-.237.043l-2.072-1.189c.054.113.093.241.157.348-.326-.553-.149-.365,0,.022.174.451.344.903.509,1.357.484,1.33.943,2.67,1.399,4.01,1.295,3.807,2.549,7.629,3.805,11.449,2.823,8.586,5.598,17.192,8.599,25.718,1.054,2.993,2.058,6.078,3.468,8.928.575,1.161,2.22,1.483,3.284.861,1.184-.692,1.438-2.118.861-3.284h0Z"/><g id="f"><path class="j" d="M239.249,325.74c10.698-30.397,35.758-106.197,39.525-119.607-10.035-3.288-74.02-25.824-85.658-27.956-4.465,13.282-38.278,107.848-42.666,121.304,18.793,6.839,68.043,21.941,88.799,26.259"/><path class="i" d="M239.886,323.423c-11.4-2.382-22.639-5.621-33.821-8.853-13.008-3.76-25.963-7.721-38.838-11.914-5.403-1.76-10.8-3.551-16.141-5.493l1.676,2.952c1.752-5.361,3.652-10.676,5.517-15.998,3.179-9.074,6.382-18.14,9.589-27.205,3.683-10.413,7.374-20.824,11.063-31.235,3.325-9.385,6.651-18.769,9.965-28.158,2.069-5.864,4.153-11.723,6.164-17.607.125-.365.249-.731.373-1.097l-2.952,1.676c4.093.758,8.111,2.09,12.083,3.308,6.388,1.958,12.74,4.034,19.082,6.134,13.776,4.56,27.5,9.276,41.223,13.993,4.42,1.519,8.831,3.069,13.272,4.525l-1.676-2.952c-1.643,5.819-3.519,11.576-5.348,17.338-3.102,9.774-6.256,19.531-9.428,29.282-2.078,6.387-4.166,12.77-6.264,19.15-.967,2.941,3.667,4.202,4.629,1.276,6.321-19.229,12.637-38.466,18.637-57.798.823-2.65,1.649-5.301,2.403-7.972.365-1.292-.449-2.55-1.676-2.952-10.049-3.297-20.015-6.853-30.023-10.27-13.803-4.713-27.614-9.427-41.542-13.761-4.628-1.44-9.318-3.045-14.094-3.93-1.332-.247-2.508.358-2.952,1.676-1.794,5.325-3.687,10.618-5.554,15.918-3.193,9.058-6.4,18.111-9.608,27.164-3.689,10.411-7.379,20.821-11.064,31.233-3.325,9.395-6.647,18.791-9.948,28.195-2.066,5.885-4.151,11.766-6.129,17.682-.123.369-.246.739-.367,1.109-.426,1.303.504,2.526,1.676,2.952,10.688,3.886,21.559,7.293,32.422,10.652,13.01,4.023,26.074,7.892,39.231,11.41,5.684,1.52,11.388,2.994,17.148,4.198,3.014.63,4.303-3.996,1.276-4.629h0Z"/><path class="i" d="M241.563,326.378c1.609-4.557,3.533-8.989,5.087-13.568.404-1.19-.463-2.676-1.676-2.952-1.33-.303-2.52.402-2.952,1.676-1.554,4.579-3.479,9.011-5.087,13.568-.418,1.185.474,2.678,1.676,2.952,1.343.306,2.504-.407,2.952-1.676h0Z"/></g><g id="g"><path class="j" d="M170.378,279.446c2.713.269,6.491.294,8.979,1.009,1.839.54,3.669,1.189,5.398,1.839,3.056-6.91,9.241-18.948,14.276-28.073.268-.341.169-.316.206-.427.02-.23.05-.47.08-.7.12-.91.31-1.81.5-2.68.87-3.93,1.7-8.67-.66-12.12-2.26-3.31-4.677-5.479-7.38-7.87-3.159-2.794-6.607-4.905-9.64-4.423-3.5.556-5.667,3.611-5.222,5.944l.249,1.309c-2.515-1.503-4.631-2.752-6.187-3.721-6.65-4.13-17.92,1.52-11.48,8.4-1.81-.28-5.57,2.87-5.46,4.95.11,2.1.97,3.65.13,5.7-.75,1.82-3.3,3.47-3.63,4.7-.81,3.05,1.74,5.67,1.61,6.17-.52,2-1.93,6.98-.21,9.29,1.28,1.73,3.85,4.26,5.61,5.43,4.27,2.85,7.33,4.64,12.44,5.23.127.014.258.028.391.041Z"/><path class="i" d="M184.497,234.892c-3.686-2.271-7.423-4.455-11.123-6.703-3.051-1.853-6.066-2.802-9.664-2.276-2.951.431-6.063,1.931-7.612,4.593-1.843,3.168-.589,6.596,1.702,9.125l1.697-4.097c-2.248-.201-4.613,1.555-6.004,3.155-.784.902-1.485,1.942-1.742,3.128-.316,1.456.196,2.884.353,4.324.277,2.543-2.535,3.703-3.568,5.734-1.307,2.568-.181,5.547,1.12,7.854.074.132.149.325.249.441l.041.077c-.198-.381-.253-.792-.163-1.234-.159.083-.259,1.001-.309,1.206-.328,1.348-.579,2.717-.705,4.099-.257,2.813.457,5.01,2.286,7.134,3.536,4.105,8.449,7.456,13.578,9.224,3.063,1.056,6.28,1.215,9.482,1.444,3.544.254,6.684,1.247,10.005,2.489,1.214.454,2.631-.506,2.952-1.676.369-1.345-.458-2.497-1.676-2.952-2.787-1.042-5.542-2.027-8.505-2.401-2.489-.314-5.025-.263-7.502-.662-4.481-.721-8.93-3.122-12.285-6.152-1.322-1.194-3.359-2.862-3.565-4.478-.247-1.948.376-3.916.815-5.786.24-1.023.208-1.735-.265-2.677-.368-.732-.844-1.395-1.101-2.175-.141-.429-.185-.805-.209-1.244-.011-.201.216-.732.004-.311-.005.009.219-.327.1-.166.671-.91,1.599-1.634,2.306-2.522,1.045-1.312,1.686-2.778,1.739-4.481.045-1.44-.487-2.822-.489-4.252,0,.489.202-.152.022.082.165-.216.266-.482.437-.699.189-.241.645-.681.963-.934s.705-.513,1.094-.693c-.25.116.116-.046.14-.055.365-.149-.177-.091.403-.039,2.212.198,2.977-2.685,1.697-4.097-.417-.46-.799-.956-1.048-1.533-.059-.137-.153-.609-.168-.795-.048-.594-.037.086.019-.346.014-.106.235-.694.042-.246.272-.63.324-.66.659-.972.563-.523,1.391-1.045,2.149-1.306,1.204-.414,1.994-.531,3.194-.505,2.316.05,4.14,1.342,6.267,2.617,3.26,1.954,6.53,3.891,9.766,5.885,2.637,1.625,5.051-2.525,2.423-4.145h0Z"/><path class="i" d="M179.23,231.308c.032.214.033-.166.061-.292.021-.092.207-.586.161-.488.222-.48.565-.913.977-1.25.984-.806,2.27-1.095,3.5-.847,3.461.698,6.406,3.811,8.86,6.151,2.364,2.254,5.227,4.968,5.476,8.416.118,1.64-.067,3.276-.369,4.886-.174.928-.393,1.847-.58,2.773-.091.448-.175.896-.247,1.347-.054.364-.104.728-.151,1.092-.059.422-.061.466-.004.132-.183,1.282.315,2.578,1.676,2.952,1.126.309,2.768-.385,2.952-1.676.5-3.5,1.566-6.964,1.557-10.525-.005-1.805-.298-3.594-1.006-5.257-.774-1.818-2.088-3.41-3.372-4.894-2.437-2.817-5.355-5.48-8.415-7.602-2.947-2.044-6.677-3.488-10.22-2.156s-6.061,4.648-5.484,8.515c.191,1.283,1.811,1.99,2.952,1.676,1.374-.378,1.868-1.665,1.676-2.952h0Z"/></g><path class="i" d="M260.536,270.463c-15.917-6.454-31.83-12.933-47.626-19.681-3.191-1.363-6.382-2.733-9.537-4.178-1.175-.538-2.582-.351-3.284.861-3.546,6.122-6.875,12.374-10.113,18.664-2.935,5.699-5.86,11.435-8.32,17.359-.407.979.277,2.204,1.103,2.71,16.263,9.973,33.782,18.243,51.604,25.01,5.15,1.956,10.361,3.753,15.648,5.301,2.97.87,4.239-3.761,1.276-4.629-18.732-5.486-36.794-13.666-53.963-22.888-4.107-2.206-8.167-4.502-12.142-6.94l1.103,2.71c.105-.251.106-.256.005-.015.058-.137.117-.275.176-.412.126-.29.252-.58.38-.869.245-.554.495-1.106.748-1.656.621-1.354,1.261-2.699,1.91-4.04,1.551-3.205,3.155-6.384,4.787-9.548,3.187-6.178,6.46-12.32,9.944-18.336l-3.284.861c15.031,6.883,30.452,12.975,45.75,19.23,4.184,1.711,8.37,3.416,12.559,5.114,1.202.487,2.637-.53,2.952-1.676.377-1.372-.47-2.463-1.676-2.952h0Z"/><g id="h"><path class="i" d="M164.427,123.056c2.861,2.801,7.388,3.619,11.229,3.616s8.368-.814,11.231-3.616c2.211-2.164-1.184-5.557-3.394-3.394-.095.093-.582.512-.269.257.326-.265-.006.002-.086.054-.129.083-.254.17-.385.25-.247.152-.502.292-.761.422-.174.088-.351.17-.53.249.325-.144.071-.03-.116.037-1.931.69-3.666.94-5.692.941-1.977.001-3.708-.219-5.591-.903-.05-.018-.713-.295-.219-.075-.149-.066-.297-.135-.444-.207-.288-.142-.571-.295-.844-.464-.208-.128-.4-.291-.611-.413.621.359.054.029-.127-.149-2.209-2.163-5.606,1.229-3.394,3.394h0Z"/><path class="i" d="M174.697,101.063c.424,1.615.83,3.256,1.073,4.909l-.086-.638c.029.227.041.45.018.678l.086-.638c-.016.105-.039.204-.075.305l.242-.573c-.031.071-.064.131-.108.196l.375-.486c-.05.061-.098.108-.16.158l.486-.375c-.124.08-.255.144-.389.206l.573-.242c-.214.089-.426.155-.655.191l.638-.086c-.207.025-.408.023-.615-.001l.638.086c-.232-.032-.46-.089-.692-.12-.67-.09-1.239-.115-1.849.242-.498.291-.973.862-1.103,1.434-.14.614-.11,1.304.242,1.849.312.484.835,1.022,1.434,1.103.517.07,1.02.202,1.546.225.802.035,1.549-.209,2.265-.537.883-.404,1.571-1.191,1.806-2.141.199-.804.113-1.514-.024-2.32-.267-1.582-.633-3.149-1.039-4.7-.318-1.214-1.729-2.072-2.952-1.676-1.25.404-2.018,1.651-1.676,2.952h0Z"/><path class="i" d="M148.628,87.193c-.82,2.664-.285,8.792,4.761,9.314,6.671-.04,7.025-7.449,4.78-10.933-1.838-2.852-7.244-4.039-9.541,1.619Z"/><path class="i" d="M202.045,87.193c.82,2.664.286,8.792-4.761,9.314-6.671-.04-7.026-7.449-4.78-10.933,1.838-2.852,7.244-4.038,9.542,1.619Z"/></g></g></g></svg>