<?xml version="1.0" encoding="UTF-8"?>
<svg id="allinus_logo" data-name="allinus_logo" xmlns="http://www.w3.org/2000/svg" xmlns:xlink="http://www.w3.org/1999/xlink" viewBox="0 0 352.56 138.7">
  <defs>
    <style>
      .cls-1 {
        clip-path: url(#clippath);
      }

      .cls-2 {
        fill: none;
      }

      .cls-2, .cls-3, .cls-4, .cls-5, .cls-6 {
        stroke-width: 0px;
      }

      .cls-3 {
        fill: url(#_grad_6-3);
      }

      .cls-4 {
        fill: url(#_grad_6-2);
      }

      .cls-7 {
        clip-path: url(#clippath-1);
      }

      .cls-8 {
        clip-path: url(#clippath-2);
      }

      .cls-5 {
        fill: url(#_grad_6);
      }

      .cls-6 {
        fill: #231815;
      }
    </style>
    <clipPath id="clippath">
      <path class="cls-2" d="m74.85,112.82v11.39h-11.39v4.02h15.41v-15.41h-4.02Zm-46.63-38.14v2.9h-2.9c-13.99,0-25.32,11.34-25.32,25.32s11.34,25.32,25.32,25.32h18.31v-4.02h-18.31c-11.75,0-21.3-9.56-21.3-21.3s9.56-21.31,21.3-21.31h6.92v-6.92c0-11.75,9.56-21.3,21.3-21.3s21.3,9.56,21.3,21.3v18.31h4.02v-18.31c0-13.99-11.34-25.32-25.32-25.32s-25.32,11.34-25.32,25.32"/>
    </clipPath>
    <linearGradient id="_grad_6" data-name="grad 6" x1="-27.64" y1="-897.78" x2="-26.64" y2="-897.78" gradientTransform="translate(-75697.23 2389.75) rotate(90) scale(84.36)" gradientUnits="userSpaceOnUse">
      <stop offset="0" stop-color="#fadce9"/>
      <stop offset="1" stop-color="#e5004f"/>
    </linearGradient>
    <clipPath id="clippath-1">
      <path class="cls-2" d="m69.16,112.82v5.7h-5.69v4.02h9.71v-9.71h-4.02Zm-35.24-38.14v8.59h-8.59c-10.82,0-19.63,8.8-19.63,19.63s8.81,19.63,19.63,19.63h18.31v-4.02h-18.31c-8.61,0-15.61-7-15.61-15.61s7-15.61,15.61-15.61h12.61v-12.61c0-8.61,7-15.61,15.61-15.61s15.61,7,15.61,15.61v18.31h4.02v-18.31c0-10.82-8.8-19.63-19.63-19.63s-19.63,8.8-19.63,19.63"/>
    </clipPath>
    <linearGradient id="_grad_6-2" data-name="grad 6" x1="-28.45" y1="-897.96" x2="-27.45" y2="-897.96" gradientTransform="translate(-63608.17 2080.69) rotate(90) scale(70.88)" xlink:href="#_grad_6"/>
    <clipPath id="clippath-2">
      <path class="cls-2" d="m63.46,116.83h4.02v-4.02h-4.02v4.02Zm-23.85-42.15v14.29h-14.29c-7.68,0-13.93,6.25-13.93,13.93s6.25,13.93,13.93,13.93h18.31v-4.02h-18.31c-5.47,0-9.91-4.45-9.91-9.91s4.45-9.92,9.91-9.92h18.31v-18.31c0-5.47,4.45-9.92,9.92-9.92s9.92,4.45,9.92,9.92v18.31h4.02v-18.31c0-7.68-6.25-13.93-13.93-13.93s-13.93,6.25-13.93,13.93"/>
    </clipPath>
    <linearGradient id="_grad_6-3" data-name="grad 6" x1="-29.65" y1="-898.37" x2="-28.65" y2="-898.37" gradientTransform="translate(-51526.9 1771.61) rotate(90) scale(57.4)" xlink:href="#_grad_6"/>
  </defs>
  <g id="_layer_1-2" data-name=" layer 1">
    <g>
      <path class="cls-6" d="m135.66,112.27h-6.89l-4.83-12.06h-14.56l-4.56,12.06h-4.11l16.22-37.39h3l15.72,37.39h.01Zm-12.56-14.11l-6.67-16.67-6.28,16.67h12.95Z"/>
      <polygon class="cls-6" points="170.05 112.27 147.22 112.27 147.22 75.22 153.44 75.22 153.44 110.16 170.05 110.16 170.05 112.27"/>
      <polygon class="cls-6" points="203.83 112.27 181 112.27 181 75.22 187.22 75.22 187.22 110.16 203.83 110.16 203.83 112.27"/>
      <rect class="cls-6" x="216.56" y="75.22" width="6.22" height="37.06"/>
      <polygon class="cls-6" points="265.56 112.55 242.9 79.49 242.9 112.27 240.4 112.27 240.4 75.22 247.34 75.22 266.9 103.61 266.9 75.22 269.34 75.22 269.34 112.55 265.56 112.55"/>
      <path class="cls-6" d="m290.79,75.22v23.28c0,3.78.5,6.33,1.61,8.28,1.39,2.44,4.5,4,7.95,4,3.78,0,7.22-1.83,8.89-4.72,1.11-1.94,1.56-4.28,1.56-8.06v-22.78h2.72v22.78c0,4.17-.5,6.72-1.78,9-2.22,3.89-6.55,6-12.44,6s-10.61-2.17-12.83-6.06c-1.39-2.44-1.89-5.06-1.89-9.61v-22.11h6.22-.01Z"/>
      <path class="cls-6" d="m331.63,101.55c.11,3.28.44,4.78,1.39,6.45,1.05,1.94,3.55,3.17,6.39,3.17,4.44,0,7.44-2.67,7.44-6.56,0-2-.72-3.78-2.06-5.06-1.17-1.17-2.17-1.67-5.5-3l-3.56-1.39c-3.83-1.56-5.22-2.33-6.78-3.89-1.83-1.72-2.78-3.95-2.78-6.5,0-2.78,1.17-5.45,3.22-7.28,2.06-1.89,5.89-3.06,9.89-3.06,7.89,0,12.67,4.06,12.67,10.72h-6c-.17-3-.5-4.39-1.39-5.89-1.05-1.78-3.39-2.95-5.89-2.95-3.95,0-6.72,2.61-6.72,6.33,0,3.17,1.72,4.94,6.78,6.94l3.83,1.5c3.89,1.56,5.56,2.5,7.11,3.94,1.89,1.83,2.89,4.33,2.89,7.17,0,3.06-1.22,5.89-3.33,7.83-2.05,1.89-5.89,3-10.17,3-5.05,0-8.5-1.22-10.78-3.78-1.83-2-2.78-4.67-2.78-7.72h6.11l.02.03Z"/>
    </g>
    <g class="cls-1">
      <rect class="cls-5" x="-14.43" y="34.92" width="107.73" height="107.73" transform="translate(-39.11 31.61) rotate(-30)"/>
    </g>
    <g class="cls-7">
      <rect class="cls-4" x="-6.65" y="42.7" width="92.18" height="92.18" transform="translate(-39.11 31.61) rotate(-30)"/>
    </g>
    <g class="cls-8">
      <rect class="cls-3" x="1.13" y="50.48" width="76.62" height="76.62" transform="translate(-39.11 31.61) rotate(-30)"/>
    </g>
    <g>
      <path class="cls-6" d="m180.97,131.12c-1.64,2.34-4.45,4.36-7.65,5.58l-.49-.52c3.01-1.78,5.46-4.45,6.72-7.56h-5.9v-.76h7.33v-3.53h2.38v3.53h3.56v.76h-3.56v7.65c0,1.46-.47,2.12-1.59,2.12-.83,0-2.03-.4-3.67-1.13v-.77c1.17.45,1.89.68,2.32.68s.56-.24.56-.68v-5.37h-.01Z"/>
      <path class="cls-6" d="m209.79,124.82h2.56v7.94h-2.56v-7.94Zm1.03,13.29c4.2-1.33,5.78-3.87,5.78-7.87v-5.42h2.56v5.42c0,3.42-1.57,7.26-7.92,8.46l-.41-.59h0Z"/>
      <path class="cls-6" d="m249.62,129.75c-.11,3.65-2.04,7.22-6.68,8.75l-.41-.59c3.13-1.58,4.34-4.41,4.39-8.16h-6.54v-.77h6.54v-4.52h2.7v4.52h5.49v.77h-5.49Z"/>
      <path class="cls-6" d="m285.73,138.23c-1.21-1.75-2.74-3.57-4.65-4.95-2.12,2.21-4.41,3.8-7.94,4.97l-.39-.63c5.02-2.38,7.79-6.18,9.07-10.98h-6.46v-.76h9.33v.78c-.7,2.39-1.66,4.29-3.06,6.01,2.2.92,4.09,1.89,5.98,3.15l-1.87,2.41h-.01Z"/>
      <path class="cls-6" d="m63.32,2.22c-.78.61-1.14,1.35-1.16,2.05.06-.1.26-.23.59-.23s.82.27.82,1.05-.55,1.24-1.16,1.24c-.74,0-1.2-.55-1.2-1.56,0-1.31.72-2.37,1.69-3.04l.42.49Zm3.04,0c-.78.61-1.16,1.35-1.18,2.05.17-.17.34-.23.61-.23.3,0,.82.27.82,1.05s-.55,1.24-1.18,1.24c-.72,0-1.21-.55-1.21-1.56,0-1.31.74-2.37,1.71-3.04l.44.49h-.01Z"/>
      <path class="cls-6" d="m89.65,10.22c-.13.27-.36.34-.89.34h-5.11c1.46,1.12,4.12,1.86,6.29,2.15l-.02.23c-.72.19-1.16.78-1.35,1.69-1.06-.4-2.07-.91-2.98-1.54v3.97s-.51.55-1.98.55v-.89h-5.78v.42c0,.13-.61.59-1.6.59h-.32v-4.86c-1.14.72-2.45,1.31-3.91,1.73l-.15-.21c1.92-.89,3.57-2.3,4.75-3.82h-4.58l-.12-.38h4.98c.38-.53.7-1.06.97-1.6h-.99v.17s-.32.7-1.98.7V3.4l2.11.86h7.33l.74-.97,2.07,1.43c-.1.13-.32.26-.65.32v3.74s-.53.59-2,.59v-.78h-5.32l1.54.34c-.08.21-.3.34-.89.36-.23.3-.46.59-.72.89h7.56l1.04-1.27,1.94,1.31h.02Zm-12.79-7.81h-4.79l-.1-.38h4.88V.05l2.68.21c-.04.27-.17.38-.72.46v1.31h3.86V.05l2.7.21c-.02.29-.17.4-.74.48v1.29h2.05l1.01-1.39,1.94,1.45c-.15.23-.36.32-.86.32h-4.14v1.06s-.17.48-1.96.48v-1.54h-3.86v1.16s-.23.48-1.96.48v-1.63h.01Zm7.64,2.2h-7.64v1.61h7.64v-1.61Zm-7.64,3.59h7.64v-1.6h-7.64v1.6Zm7.05,3.44c-.3-.34-.59-.7-.82-1.08h-4.35c-.44.46-.91.91-1.46,1.33l.8.3h5.41l.42-.55h0Zm-.3.93h-5.77v1.69h5.77v-1.69Zm-5.78,3.76h5.77v-1.69h-5.77v1.69Z"/>
      <path class="cls-6" d="m102.6,5.41c0,.27.15.61.36.99.25.44.32.55.19,1.07-.15.51-.47,2.3-.47,3.7,0,.7.25.72.49.53.82-.63,2.58-2.05,4.65-2.05,2.22,0,3.88,1.33,3.88,3.38,0,4.03-5.17,4.82-7.75,4.41-.04-.08-.04-.17,0-.25,3.32-.19,5.74-1.9,5.74-4.44,0-1.43-.87-2.45-2.13-2.45-1.16,0-2.34.65-3.29,2.32-.42.7-.59,1.2-.87,1.54-.19.27-.44.36-.67.36-.4,0-1.08-.46-1.54-1.22-.19-.29-.23-.53-.23-.87,0-.8.4-4.1.49-5.3.06-.59-.02-1.23-.02-1.56,0-.23.11-.42.4-.51.19-.04.38-.08.49-.13.46-.27,1.35-.87,1.77-1.24.25-.23.25-.42.09-.61-.34-.38-1.01-1.02-1.27-1.71.02-.08.1-.13.19-.13.63.51,1.6.76,2.49.95.38.06.78.21,1.06.42.61.51.97,1.25.97,1.69,0,.36-.23.53-.59.53s-1.48-.19-2.03-.19c-.63,0-2.41.38-2.41.76v.02h0Z"/>
      <path class="cls-6" d="m136.03,14.85c-.65.82-2.58,2.62-5.32,2.62-2.34,0-4.1-1.27-4.1-4.41,0-1.42.7-6.5.7-8.23s-.34-2.64-1.12-2.87c-.04-.08-.06-.25,0-.32.23-.04.61-.1.93-.1.25,0,.47.04.74.15.49.21,1.05.57,1.33.89.3.34.32.65.32,1.08,0,.59-.15,1.52-.34,2.45-.36,1.96-1.08,4.69-1.08,6.9,0,1.92,1.12,2.53,2.56,2.53,2,0,3.59-.72,4.65-1.58.78-.61,1.48-1.44,1.96-2.24.1-.02.21.04.27.13-.19.67-.63,1.9-1.5,2.98"/>
      <path class="cls-6" d="m156.21,16.54c3-.66,5.32-3.17,5.32-7.09,0-3.11-2.05-5.76-5.17-5.76-.38,0-.78.06-1.16.13.47.19.82.48,1.1.91.46.65.67,1.44.67,2.11,0,.86-.78,2.91-1.33,4.08-.59,1.23-1.2,2.37-1.98,3.38-.8,1.01-1.81,1.35-2.49,1.33-1.03-.06-1.18-1.08-1.58-2.07-.26-.67-1.33-1.99-1.33-3.65,0-3.53,3.93-6.9,8.11-6.9,4.41,0,7.26,3.12,7.26,6.82,0,3.89-2.68,6.71-7.37,6.99-.06-.06-.08-.19-.06-.3m-1.35-12.61c-2.72.78-5.05,3.61-5.05,6.55,0,1.77.97,2.87,1.63,2.87.57,0,1.5-.61,2.72-3.14.59-1.23,1.23-3.15,1.23-4.52,0-.67-.13-1.31-.53-1.77"/>
      <path class="cls-6" d="m179.78,2.94c.15.13.4.29.59.34.21.08.57.04.8.04.57-.02.95.15.95.78,0,.28-.17.59-.42.74-.7.44-1.96.86-3.12,1.14-.63,1.79-2.09,5.49-2.93,7.05-.32.61-.66.89-1.04.89-.61,0-.82-.44-.82-1.16,0-.51.13-.91.32-1.18.36-.57,1.04-1.33,1.82-2.83.34-.66.74-1.58,1.06-2.43-.48.1-.84.13-1.03.13-.63,0-1.42-.7-1.75-1.33-.11-.27-.19-.57-.25-.85.04-.08.13-.13.23-.11.36.48.97.68,1.9.68.4,0,.89-.04,1.41-.13.13-.53.23-.95.27-1.39.04-.74-.23-.95-.53-1.06-.23-.1-.25-.29-.11-.42.17-.15.63-.42,1.01-.42s1.1.3,1.54.72c.19.17.21.3.21.42,0,.08-.06.23-.11.38m4.67,11.47c.02.23.04.44.04.59-.02,1.77-1.33,2.43-2.79,2.43-1.77,0-2.87-.8-3.12-1.8-.06-.32-.23-.63-.23-1.01,0-1.37,1.46-2.18,3.67-2.18.21,0,.42.02.63.02-.04-.57-.06-1.16-.06-1.65,0-1.61.42-2.93,1.46-3.55.4-.23.93-.44,1.21-.57.23-.1.29-.19.13-.38-.21-.23-.53-.46-1.01-.55-.42-.1-1.03.02-1.58.21-.06-.06-.11-.13-.09-.23.68-.49,1.58-.82,2.3-.82.53,0,1.23.17,1.71.38.48.21.74.44.95.82.19.4.27.82.27,1.14,0,.48-.23.76-.68.76-.57,0-1.37-.68-2.34-.68-.57,0-1.05.45-1.05,1.73-.02.7.21,2.24.4,3.65.84.19,1.6.51,2.32.93.44.26.63.49.74.66.25.32.34.7.34.99,0,.44-.44.72-.72.72s-.47-.1-.66-.25c-.65-.59-1.25-1.03-1.84-1.35m-1.73-.65c-.49-.1-.99-.13-1.52-.13-1.29,0-2.11.32-2.11,1.04s.95,1.18,2.17,1.18c.8,0,1.37-.38,1.44-1.12.02-.25.02-.59.02-.97m-3.02-10.64l-.13.27c-.13.27-.25.59-.4.95.36-.11.67-.23.89-.32.1-.04.17-.13.1-.25l-.46-.65h0Z"/>
      <path class="cls-6" d="m198.33,6.53c.29.45.93.57,1.71.57.65,0,1.65-.17,2.66-.36.34-1.04.59-2.05.59-2.62v-.02c0-.89-.65-1.16-1.01-1.23-.04-.04-.04-.15,0-.23.36-.15.76-.23,1.1-.23.68,0,1.48.51,1.79.76.21.21.34.36.34.57,0,.17-.08.34-.23.61-.27.42-.57,1.25-.89,2.07.59-.09,1.1-.19,1.41-.19,1.56,0,2.66.86,2.66,2.57,0,1.6-.65,4.12-1.45,5.66-.38.72-.78,1.23-1.35,1.6-.34.19-1.03.45-1.63.45-.49,0-.84-.25-.93-.7-.06-.27-.11-.49-.29-.74-.25-.34-.63-.78-1.02-1.2.02-.1.08-.17.15-.19.68.42,1.63.82,2.17.82.32,0,.59-.07.87-.32.82-.7,1.79-3.38,1.79-5.43,0-1.08-.36-1.61-1.25-1.61-.32,0-.91.21-1.59.47-.89,2.15-2.81,6.63-3.69,7.96-.36.55-.59.82-1.1.82-.61,0-.78-.72-.78-1.35,0-.3.13-.65.32-.87.4-.49.86-1.06,1.33-1.77.7-1.06,1.56-2.74,2.11-4.07-.85.34-1.67.63-2.13.63-.65,0-1.48-.87-1.65-1.25-.15-.27-.21-.72-.25-1.1.08-.04.17-.08.25-.06m12.61-.55c2.38,0,3.86,2.36,3.86,3.8,0,.74-.42,1.8-1.02,1.8-.48,0-.8-.34-1.31-.38-.29-.04-.95-.02-1.69.06-.04-.08-.08-.17-.06-.25.57-.25,1.33-.53,1.67-.76.27-.15.44-.36.44-.78,0-1.22-1.22-3.21-3.27-3.02-.06-.06-.08-.15-.04-.25.44-.13.99-.23,1.41-.23h.02-.01Z"/>
      <path class="cls-6" d="m226.9,4.67c.25.61.25.82-.15,1.67-.67,1.46-1.5,3.34-1.5,4.98,0,.38.08.7.15.85.1.19.27.17.38,0,.44-.68,1.18-2.18,1.65-3.19.11.02.23.06.3.15-.4,1.27-1.05,3.3-1.12,4.43-.06.65.04,1.12.19,1.79.13.63.06,1.06-.3,1.39-.44.34-.99.27-1.35-.27-.55-.8-1.22-2.72-1.16-4.71.08-2.7.99-5.47,1.01-7.01,0-.97-.13-1.56-.42-2.22.02-.09.11-.17.23-.17.82.51,1.75,1.46,2.09,2.32m3.97,8.09c0,1.23,1.2,1.94,2.81,1.94,2.09,0,2.64-.55,3.27-.55.27,0,.7.04,1.05.29.25.13.3.36.3.57,0,.4-.19.66-.68.93-.78.4-2.34.61-3.63.61-2.24,0-4.07-1.01-4.07-2.81,0-1.06.7-1.94.91-2.24.08-.02.17.04.23.1-.11.42-.19.85-.19,1.18m2.13-8.68c.48,0,1.05-.04,1.71-.19.51-.1.99-.32,1.37-.32.48,0,.97.17,1.29.42.17.15.27.38.27.61,0,.36-.15.65-.44.7-.29.1-.72.19-1.23.32-.84.27-1.8.74-2.7,1.22-.08-.04-.13-.1-.15-.19.4-.36.74-.74.99-1.04.11-.15.08-.23-.11-.25-1.16-.06-2.13-.34-2.85-1.4,0-.1.06-.19.17-.21.42.25,1.06.34,1.67.34h.02,0Z"/>
      <path class="cls-6" d="m262.72,5.51l2.13,1.46c-.15.25-.38.34-.91.34h-9.69c-.36.61-.76,1.2-1.22,1.75l.84.32h6.04l.78-1.03,2.13,1.5c-.11.13-.36.29-.7.34v6.97s-.55.53-2.03.53v-1.2h-6.48v.78c0,.13-.61.61-1.63.61h-.36v-7.29c-1.22,1.16-2.66,2.16-4.33,3.02l-.19-.27c2.22-1.6,3.95-3.68,5.17-6.04h-5.02l-.1-.38h5.3c.32-.66.63-1.35.87-2.03h-4.54l-.11-.38h4.79c.19-.61.38-1.24.51-1.84-1.86.11-3.76.21-5.55.23l-.04-.34c4.45-.49,10.11-1.61,13.05-2.56l1.84,1.82c-.1.1-.25.13-.44.13-.21,0-.46-.06-.74-.17-1.63.27-3.67.51-5.85.7-.17.7-.4,1.37-.65,2.03h4.75l1.14-1.39,2.09,1.44c-.15.25-.4.32-.91.32h-7.2c-.29.7-.61,1.39-.99,2.03h7.09l1.16-1.42v.02Zm-2.64,4.24h-6.48v1.8h6.48v-1.8Zm0,2.18h-6.48v1.9h6.48v-1.9Zm-6.48,4.2h6.48v-1.92h-6.48v1.92Z"/>
      <path class="cls-6" d="m277.57,2.64l1.73,1.27c-.13.25-.38.32-.87.32h-6.31l-.11-.38h4.65l.91-1.22h0Zm-.67,2.55l1.63,1.2c-.13.23-.4.32-.87.32h-4.75l-.11-.38h3.23l.87-1.14h0Zm1.63,3.67c-.13.25-.4.32-.87.32h-4.75l-.11-.38h3.23l.87-1.14,1.63,1.2h0Zm.46,2.98c-.1.13-.36.27-.72.34v4.41s-.47.53-1.79.53v-1.23h-1.9v1.37s-.25.65-1.77.65v-7.31l1.84.78h1.65l.7-.93,1.98,1.41v-.02Zm-.51-10.33c-.15.25-.4.32-.89.32h-4.62l-.11-.38h2.96l.93-1.22,1.73,1.27h0Zm-3.89,14h1.9v-3.76h-1.9v3.76Zm12.9-4.26l1.8,1.6c-.15.19-.34.25-.8.27-.65.86-1.44,1.6-2.39,2.2,1.23.3,2.57.49,3.91.59l-.02.23c-.76.21-1.25.84-1.44,1.77-1.63-.36-3.1-.87-4.33-1.58-1.75.74-3.82,1.25-6.1,1.56l-.08-.29c1.92-.46,3.67-1.12,5.11-2-.99-.76-1.8-1.73-2.39-2.94h-1.56l-.11-.38h7.24l1.16-1.02h0Zm-8.68-9.04l-.1-.38h2.49V.06l2.41.19c-.02.23-.15.34-.63.4v1.18h2.17V.06l2.43.19c-.02.23-.15.34-.61.4v1.18h.51l.89-1.16,1.67,1.22c-.13.25-.38.32-.89.32h-2.19v.82c0,.13-.8.42-1.46.42l1.03.19c-.04.29-.25.44-.76.44-.34.27-.91.68-1.35,1.01h2.51l.89-1.12,1.67,1.18c-.13.25-.38.32-.87.32h-3.17v1.44h1.2l.84-1.02,1.6,1.08c-.15.25-.4.32-.87.32h-2.75v1.46h1.2l.84-1.03,1.6,1.08c-.13.25-.38.32-.86.32h-2.77v1.48h1.86l.91-1.16,1.75,1.22c-.13.25-.38.32-.87.32h-7.52v.27c0,.13-.55.55-1.41.55h-.3v-4.65c-.49.51-.99.97-1.5,1.33l-.25-.17c.87-1.22,1.86-3.33,2.51-5.38l.57.23v-.95h-2.42Zm2.39,10.45c.76.93,1.86,1.61,3.17,2.11.78-.61,1.44-1.31,1.96-2.11h-5.13Zm3.95-10.45h-2.17v.87c0,.1-.48.3-1.01.38l.84.32c-.08.23-.25.32-.72.29-.17.3-.34.61-.53.91l.27.1h1.81c.11-.57.25-1.37.34-1.92l1.18.21v-1.16h0Zm-1.5,3.25h-2.07v1.44h2.07v-1.44Zm0,1.82h-2.07v1.46h2.07v-1.46Zm0,1.84h-2.07v1.48h2.07v-1.48Z"/>
      <path class="cls-6" d="m305.67,2.54l-.02.04c.11.02.23.04.32.04l.89.06c.36.02.61.06.66.34.29.23.19.48-.15.82-.42.46-1.16.8-2.17,1.08l-.83.23c-.51.97-1.08,1.99-1.63,2.93-.11.17-.06.21.15.11.34-.15.97-.53,1.54-.53.49,0,1.25.21,1.69.57.15.15.3.32.42.53.63-1.01,1.42-1.8,2.05-2.26.74-.51,1.44-.86,2.36-.86.74,0,1.73.4,2.34,1.29.25.36.21.78-.15,1.06-1.37,1.1-4.12,1.84-6.36,2.77,0,.02-.02.04-.02.06l.04,1.58c0,.7-.02,1.1-.13,1.43-.1.26-.3.4-.63.42-.23,0-.48-.04-.65-.23-.13-.19-.38-.63-.38-1.06,0-.23.06-.74.09-1.39-.89.53-1.69,1.29-1.69,2.3,0,1.1.84,1.79,2.64,1.79,1.48,0,2.53-.36,3.19-.49.59-.1,1.04.08,1.04.67,0,.29-.08.59-.4.91-.53.47-1.69.78-3.49.78-2.17,0-4.45-.83-4.45-3.3,0-1.22,1.08-2.24,3.21-3.4.02-.3.02-.63.02-.93,0-.97-.38-1.52-1.2-1.52-.61,0-1.25.59-1.81,1.22-.64.7-1.4,1.92-1.99,1.92-.34,0-.95-.46-.95-1.1,0-.85.97-1.23,1.81-2.17.53-.63,1.31-1.6,1.9-2.77-.25.04-.49.08-.74.08-.32.02-.57-.02-.86-.17-.36-.23-.74-.59-.89-.87-.15-.25-.27-.53-.34-.91.04-.1.15-.13.23-.13.42.46,1.03.55,1.63.55.42,0,1.01-.04,1.58-.13.25-.97.25-1.62-.48-1.86-.17-.06-.19-.23-.07-.36.13-.15.34-.32.53-.4.31-.13.61-.1.95,0,.4.11.99.42,1.2.63.15.13.17.32,0,.68m-.51.99c.32-.08.59-.13.74-.19.1-.04.13-.09.04-.21l-.38-.38-.4.78Zm1.79,6.36c1.79-.91,3.65-1.96,4.05-2.68.13-.21.19-.49-.02-.67-.53-.47-1.58-.23-2.22.27-.76.59-1.45,1.73-1.8,3.08"/>
      <path class="cls-6" d="m320.47,5.85c.78-.63,1.16-1.37,1.18-2.07-.13.19-.42.25-.61.25-.32,0-.8-.27-.8-1.05s.53-1.25,1.16-1.25c.72,0,1.2.55,1.2,1.58,0,1.31-.72,2.37-1.71,3.02l-.42-.48h0Zm3.02,0c.78-.63,1.18-1.37,1.18-2.07-.13.21-.4.25-.61.25-.3,0-.82-.27-.82-1.05s.55-1.25,1.18-1.25c.72,0,1.21.55,1.21,1.58,0,1.31-.74,2.37-1.71,3.02l-.44-.48h.01Z"/>
    </g>
  </g>
</svg>