<?xml version="1.0" encoding="UTF-8"?>
<svg id="_レイヤー_1" data-name="レイヤー 1" xmlns="http://www.w3.org/2000/svg" xmlns:xlink="http://www.w3.org/1999/xlink" viewBox="0 0 352.57 89.34">
  <defs>
    <style>
      .cls-1 {
        fill: url(#_名称未設定グラデーション_77-3);
      }

      .cls-1, .cls-2, .cls-3, .cls-4 {
        stroke-width: 0px;
      }

      .cls-2 {
        fill: url(#_名称未設定グラデーション_77-2);
      }

      .cls-3 {
        fill: url(#_名称未設定グラデーション_77);
      }

      .cls-4 {
        fill: #231815;
      }
    </style>
    <linearGradient id="_名称未設定グラデーション_77" data-name="名称未設定グラデーション 77" x1="24.19" y1="13.03" x2="66.37" y2="86.08" gradientUnits="userSpaceOnUse">
      <stop offset="0" stop-color="#fadce9"/>
      <stop offset="1" stop-color="#e5004f"/>
    </linearGradient>
    <linearGradient id="_名称未設定グラデーション_77-2" data-name="名称未設定グラデーション 77" x1="27.04" y1="17.97" x2="62.48" y2="79.35" xlink:href="#_名称未設定グラデーション_77"/>
    <linearGradient id="_名称未設定グラデーション_77-3" data-name="名称未設定グラデーション 77" x1="29.89" y1="22.9" x2="58.59" y2="72.61" xlink:href="#_名称未設定グラデーション_77"/>
  </defs>
  <g>
    <path class="cls-4" d="m135.66,62.92h-6.89l-4.83-12.06h-14.56l-4.56,12.06h-4.11l16.22-37.39h3l15.72,37.39Zm-12.56-14.11l-6.67-16.67-6.28,16.67h12.94Z"/>
    <path class="cls-4" d="m170.05,62.92h-22.83V25.86h6.22v34.95h16.61v2.11Z"/>
    <path class="cls-4" d="m203.83,62.92h-22.83V25.86h6.22v34.95h16.61v2.11Z"/>
    <path class="cls-4" d="m222.78,62.92h-6.22V25.86h6.22v37.06Z"/>
    <path class="cls-4" d="m265.56,63.19l-22.67-33.06v32.78h-2.5V25.86h6.95l19.56,28.39v-28.39h2.44v37.33h-3.78Z"/>
    <path class="cls-4" d="m290.79,25.86v23.28c0,3.78.5,6.33,1.61,8.28,1.39,2.44,4.5,4,7.95,4,3.78,0,7.22-1.83,8.89-4.72,1.11-1.94,1.56-4.28,1.56-8.06v-22.78h2.72v22.78c0,4.17-.5,6.72-1.78,9-2.22,3.89-6.56,6-12.44,6s-10.61-2.17-12.83-6.06c-1.39-2.44-1.89-5.06-1.89-9.61v-22.11h6.22Z"/>
    <path class="cls-4" d="m331.63,52.19c.11,3.28.44,4.78,1.39,6.44,1.06,1.94,3.56,3.17,6.39,3.17,4.44,0,7.44-2.67,7.44-6.56,0-2-.72-3.78-2.06-5.06-1.17-1.17-2.17-1.67-5.5-3l-3.56-1.39c-3.83-1.56-5.22-2.33-6.78-3.89-1.83-1.72-2.78-3.94-2.78-6.5,0-2.78,1.17-5.44,3.22-7.28,2.06-1.89,5.89-3.06,9.89-3.06,7.89,0,12.67,4.06,12.67,10.72h-6c-.17-3-.5-4.39-1.39-5.89-1.06-1.78-3.39-2.94-5.89-2.94-3.94,0-6.72,2.61-6.72,6.33,0,3.17,1.72,4.94,6.78,6.94l3.83,1.5c3.89,1.56,5.56,2.5,7.11,3.94,1.89,1.83,2.89,4.33,2.89,7.17,0,3.06-1.22,5.89-3.33,7.83-2.06,1.89-5.89,3-10.17,3-5.06,0-8.5-1.22-10.78-3.78-1.83-2-2.78-4.67-2.78-7.72h6.11Z"/>
  </g>
  <path class="cls-3" d="m74.85,63.46h4.02v15.41h-15.41v-4.02h11.39v-11.39ZM53.54,0c-13.99,0-25.32,11.34-25.32,25.32v2.9h-2.9C11.34,28.22,0,39.56,0,53.54s11.34,25.32,25.32,25.32h18.31v-4.02h-18.31c-11.75,0-21.3-9.56-21.3-21.3s9.56-21.3,21.3-21.3h6.92v-6.92c0-11.75,9.56-21.3,21.3-21.3s21.3,9.56,21.3,21.3v18.31h4.02v-18.31c0-13.99-11.34-25.32-25.32-25.32Z"/>
  <path class="cls-2" d="m63.46,69.15h5.69v-5.69h4.02v9.71h-9.71v-4.02Zm-53.75-15.61c0-8.61,7-15.61,15.61-15.61h12.61v-12.61c0-8.61,7-15.61,15.61-15.61s15.61,7,15.61,15.61v18.31h4.02v-18.31c0-10.82-8.81-19.63-19.63-19.63s-19.63,8.8-19.63,19.63v8.59h-8.59c-10.82,0-19.63,8.8-19.63,19.63s8.81,19.63,19.63,19.63h18.31v-4.02h-18.31c-8.61,0-15.61-7-15.61-15.61Z"/>
  <path class="cls-1" d="m67.48,63.46v4.02h-4.02v-4.02h4.02Zm-4.02-29.62v9.79h4.02v-18.31c0-7.68-6.25-13.93-13.93-13.93s-13.93,6.25-13.93,13.93v14.29h-14.29c-7.68,0-13.93,6.25-13.93,13.93s6.25,13.93,13.93,13.93h18.31v-4.02h-18.31c-5.47,0-9.92-4.45-9.92-9.91s4.45-9.91,9.92-9.91h18.31v-18.31c0-5.47,4.45-9.91,9.92-9.91s9.92,4.45,9.92,9.91v8.51Z"/>
  <g>
    <path class="cls-4" d="m180.97,81.76c-1.64,2.34-4.45,4.36-7.65,5.58l-.49-.52c3.01-1.78,5.46-4.45,6.72-7.56h-5.91v-.76h7.33v-3.53h2.38v3.53h3.56v.76h-3.56v7.65c0,1.46-.47,2.12-1.58,2.12-.83,0-2.03-.4-3.67-1.13v-.77c1.17.45,1.89.68,2.32.68s.56-.23.56-.68v-5.37Z"/>
    <path class="cls-4" d="m209.79,83.4v-7.94h2.56v7.94h-2.56Zm1.03,5.35c4.2-1.33,5.78-3.87,5.78-7.87v-5.42h2.56v5.42c0,3.42-1.57,7.26-7.92,8.46l-.41-.59Z"/>
    <path class="cls-4" d="m249.61,80.4c-.11,3.66-2.04,7.22-6.68,8.75l-.41-.59c3.13-1.58,4.34-4.41,4.39-8.16h-6.54v-.77h6.54v-4.52h2.7v4.52h5.49v.77h-5.49Z"/>
    <path class="cls-4" d="m285.72,88.88c-1.21-1.75-2.74-3.56-4.65-4.95-2.12,2.21-4.41,3.8-7.94,4.97l-.4-.63c5.02-2.38,7.8-6.18,9.07-10.98h-6.46v-.76h9.33v.77c-.7,2.39-1.66,4.29-3.06,6.01,2.2.92,4.09,1.89,5.98,3.15l-1.87,2.41Z"/>
  </g>
</svg>