<svg version="1.1" id="Layer_1" xmlns="http://www.w3.org/2000/svg" xmlns:xlink="http://www.w3.org/1999/xlink" x="0px" y="0px"
	 width="100%" viewBox="0 0 816 320" enable-background="new 0 0 816 320" xml:space="preserve">
<path fill="#000000" opacity="1.000000" stroke="none" 
	d="
M817.000000,123.531601 
	C805.308533,122.462418 793.618347,120.915329 781.925171,119.390785 
	C774.785034,118.459854 771.028076,114.598633 771.456787,108.578804 
	C771.882385,102.604759 776.129028,99.103996 783.533752,99.796860 
	C794.438110,100.817192 805.281372,102.489914 816.575317,103.942375 
	C817.000000,110.354401 817.000000,116.708794 817.000000,123.531601 
z"/>
<path fill="#000000" opacity="1.000000" stroke="none" 
	d="
M152.891724,156.852844 
	C139.356735,173.548294 121.282944,178.947372 101.058876,180.082794 
	C77.954483,181.379913 56.149296,178.161819 37.429920,163.375900 
	C23.805103,152.614059 15.152294,138.420074 10.235479,121.861389 
	C9.459537,119.248199 9.687927,116.574730 9.682718,113.921135 
	C9.657879,101.264862 9.668783,88.608498 9.679581,75.952179 
	C9.693075,60.134766 23.231169,45.607964 38.931057,44.778980 
	C41.735058,44.630928 44.042713,43.889442 46.302814,42.286861 
	C55.816879,35.540676 66.314201,32.779026 77.958321,34.609123 
	C80.646217,35.031574 83.358711,35.537304 85.435417,37.166752 
	C89.074280,40.021904 92.922874,39.873962 97.217148,39.494652 
	C108.217384,38.523010 118.022675,41.373810 125.446655,50.090523 
	C127.040245,51.961620 128.805481,53.132088 131.182785,53.739861 
	C141.441849,56.362667 149.997711,61.277027 154.457520,71.536179 
	C154.779282,72.276352 155.280701,73.071068 155.922684,73.519905 
	C170.296890,83.569862 171.652359,98.475632 170.913574,114.045563 
	C170.140808,130.331848 163.148407,144.115738 152.891724,156.852844 
M128.075729,95.236359 
	C122.002380,84.343399 125.179420,78.019295 141.180984,69.478004 
	C139.519852,66.443481 136.761398,64.524696 133.623688,64.714836 
	C130.441956,64.907631 131.652481,68.408249 131.100357,70.467781 
	C129.226303,77.458122 122.538506,83.419914 115.887444,83.816673 
	C110.664230,84.128258 105.610245,80.591812 103.223778,74.955490 
	C100.423668,68.342194 103.276123,60.508839 109.879356,56.380749 
	C111.336563,55.469757 113.464767,55.321068 114.045547,53.088490 
	C112.330116,50.804508 109.845062,49.909367 107.235397,49.364872 
	C98.812355,47.607437 97.511032,48.756001 98.072777,57.150646 
	C98.194901,58.975677 98.213478,60.817200 98.132149,62.644558 
	C97.849327,68.999123 94.190422,73.165901 87.922394,74.371994 
	C81.287331,75.648705 74.355347,72.954475 71.268166,67.899063 
	C68.323273,63.076626 69.231377,56.891628 73.438431,51.169777 
	C74.972511,49.083351 77.602898,47.796101 78.182632,44.999577 
	C71.915199,41.037392 60.853474,43.083282 53.889481,49.545803 
	C55.889191,51.898685 58.057190,54.153667 59.870468,56.664787 
	C61.752804,59.271557 62.403233,62.454781 63.014755,65.557480 
	C65.274261,77.021591 58.274002,88.014000 47.971073,89.300919 
	C37.213009,90.644676 28.697275,82.624298 28.095766,70.535011 
	C27.908262,66.766518 28.943727,63.109001 29.791954,58.536888 
	C23.198364,63.274052 20.431753,69.460899 18.214828,75.848656 
	C12.034535,93.656334 14.424949,111.088310 21.787882,127.883484 
	C29.279812,144.972916 41.285847,157.903183 58.960461,165.009171 
	C75.368240,171.605820 92.497116,171.192795 109.644417,170.162231 
	C115.975258,169.781754 122.098351,167.954834 127.834099,165.159576 
	C150.177979,154.270477 165.727341,124.125992 161.529205,99.563797 
	C160.938126,96.105553 160.205795,92.421684 156.913040,89.255348 
	C153.951447,94.722435 150.578766,99.542038 144.551468,101.094566 
	C138.203339,102.729752 132.677277,101.216385 128.075729,95.236359 
M38.226879,66.125923 
	C38.128345,67.616348 37.929024,69.108154 37.949310,70.596962 
	C38.024002,76.079147 41.071316,79.986725 45.352669,80.200821 
	C48.913109,80.378868 53.654343,75.830475 54.444370,71.478912 
	C55.360088,66.435036 50.640301,57.527615 45.966103,57.026184 
	C40.534908,56.443542 40.193535,61.856922 38.226879,66.125923 
M141.920090,92.384125 
	C145.435364,91.076996 146.726868,88.023849 147.644867,84.807098 
	C148.105972,83.191338 148.074326,81.280449 146.127472,80.585266 
	C143.186859,79.535233 140.226166,79.751602 137.686813,81.759323 
	C135.862381,83.201790 133.933258,84.894569 134.745697,87.531853 
	C135.682938,90.574196 137.672775,92.679779 141.920090,92.384125 
M80.408836,64.019623 
	C83.426414,66.385674 86.206070,66.486763 88.260262,62.879398 
	C89.994453,59.834003 89.055717,53.152756 86.809662,52.937687 
	C82.936989,52.566860 81.163452,55.587524 79.783386,58.686913 
	C79.074364,60.279263 79.011810,61.886265 80.408836,64.019623 
M112.312210,72.123779 
	C114.286766,74.560898 116.507126,75.462318 118.976768,72.882294 
	C121.410866,70.339401 122.603539,67.329735 121.430489,63.807358 
	C121.073540,62.735508 120.002525,62.631889 118.929543,62.703602 
	C114.457275,63.002502 111.452026,66.771034 112.312210,72.123779 
z"/>
<path fill="#000000" opacity="1.000000" stroke="none" 
	d="
M589.387695,149.309937 
	C593.075989,144.136459 593.021790,138.324066 593.664368,132.770844 
	C594.624390,124.474457 593.874146,116.131493 593.704407,107.805893 
	C593.569641,101.196381 595.446655,98.553391 601.384583,96.222130 
	C589.994568,96.222130 578.478577,96.228096 566.962585,96.218475 
	C563.532654,96.215607 562.067688,98.317329 561.028992,101.259567 
	C558.127686,109.478294 553.913635,117.010033 548.872559,124.120506 
	C546.178894,127.920021 542.662842,129.738831 538.162476,128.922791 
	C533.848572,128.140549 531.264832,125.175346 529.966370,121.030525 
	C529.160950,118.459549 529.459717,116.247528 531.212646,114.041176 
	C542.197327,100.215363 547.007629,84.222321 547.663574,66.770035 
	C547.911621,60.170784 552.059448,56.076279 557.938232,56.327751 
	C563.525208,56.566738 567.188965,60.769108 567.336670,67.113533 
	C567.352173,67.779625 567.347961,68.446297 567.345154,69.112663 
	C567.317627,75.667725 567.606506,76.041107 573.924927,76.017357 
	C592.084473,75.949112 610.243835,75.817604 628.403259,75.715843 
	C631.068542,75.700912 633.743347,75.568954 636.397400,75.741768 
	C641.999878,76.106544 645.799316,80.128868 645.801208,85.485443 
	C645.803040,90.661613 641.790833,95.085182 636.333130,95.200699 
	C626.384705,95.411270 616.428650,95.260536 606.138855,95.855911 
	C613.385193,98.896347 613.594360,105.223816 613.896790,111.134789 
	C614.518616,123.291718 614.209534,135.412247 611.591614,147.416367 
	C608.259705,162.694473 598.337952,171.753159 582.604980,173.127609 
	C578.972656,173.444946 575.254456,173.450363 571.632324,173.066315 
	C565.054993,172.368958 561.294861,167.886398 561.906372,162.030090 
	C562.533508,156.024475 567.390930,152.531799 574.145691,153.271561 
	C579.597473,153.868637 584.805664,153.539963 589.387695,149.309937 
z"/>
<path fill="#000000" opacity="1.000000" stroke="none" 
	d="
M278.727051,102.327545 
	C274.724670,102.910034 274.619049,105.661201 274.537872,108.391861 
	C274.295441,116.544235 273.621124,124.653893 272.690796,132.762146 
	C270.577087,151.184967 259.188934,161.365570 242.649673,166.970276 
	C236.815491,168.947311 230.751068,170.149048 224.599808,170.725464 
	C217.922363,171.351196 212.788300,167.783279 211.985641,162.076126 
	C211.163742,156.232269 215.392090,151.600723 222.351852,150.591309 
	C225.972519,150.066177 229.599014,149.511932 233.171066,148.733231 
	C246.382904,145.853073 251.426910,140.772308 253.342606,127.562500 
	C254.271210,121.159164 254.269196,114.621689 254.708633,108.146309 
	C254.999313,103.862938 253.004456,102.202225 248.755280,102.243118 
	C235.099976,102.374542 221.442276,102.360123 207.786285,102.275642 
	C199.899445,102.226852 195.891373,96.994919 197.680099,89.405167 
	C198.721970,84.984467 201.085419,82.550972 206.038300,82.612968 
	C220.025757,82.788017 234.016800,82.690254 248.006409,82.673424 
	C254.207108,82.665970 254.849243,82.006653 254.858841,75.784683 
	C254.867050,70.455376 254.760681,65.124893 254.839951,59.796940 
	C254.930878,53.686596 258.157532,50.025898 263.564819,49.670563 
	C269.722687,49.265903 273.267731,52.065582 274.430847,58.119949 
	C275.636749,64.397095 275.174896,70.738525 275.181366,77.051506 
	C275.185486,81.079315 276.801819,82.808853 280.866241,82.696785 
	C286.524170,82.540779 292.190094,82.658020 297.852448,82.682938 
	C304.127686,82.710541 307.807068,86.267105 307.899017,92.357315 
	C307.980499,97.758209 303.898010,102.053848 298.130280,102.226852 
	C291.807068,102.416527 285.474457,102.293907 278.727051,102.327545 
z"/>
<path fill="#000000" opacity="1.000000" stroke="none" 
	d="
M488.424896,111.365814 
	C474.125793,131.975525 457.704041,149.922775 436.230713,162.712067 
	C434.380249,163.814163 432.337006,164.587738 430.413879,165.573532 
	C419.328491,171.255936 410.906799,165.626358 403.198608,157.536636 
	C400.996246,155.225235 400.365631,152.271072 401.987091,149.206573 
	C403.687347,145.993088 406.654968,145.025009 409.964691,145.098145 
	C412.281738,145.149338 414.774994,145.431915 416.659119,146.837860 
	C420.087463,149.396088 422.868500,148.618546 426.094849,146.299759 
	C445.490021,132.360382 462.908295,116.602051 474.335571,95.162582 
	C477.558746,89.115364 477.213531,88.124077 470.484955,87.175262 
	C457.801483,85.386726 445.083466,83.843674 432.380768,82.191109 
	C430.566284,81.955063 428.740570,81.760506 426.948608,81.403542 
	C420.932587,80.205147 417.986389,76.253059 418.650208,70.379524 
	C419.315643,64.492004 422.964355,61.147663 429.308594,61.804558 
	C440.723175,62.986446 452.079346,64.729904 463.462189,66.221558 
	C472.530243,67.409882 481.585327,68.724785 490.676453,69.701538 
	C498.855988,70.580330 502.292084,74.317444 501.377899,82.645134 
	C500.192749,93.441475 494.273041,102.217049 488.424896,111.365814 
z"/>
<path fill="#000000" opacity="1.000000" stroke="none" 
	d="
M770.044678,79.018219 
	C770.053833,106.844528 770.062561,134.174225 770.073853,161.503922 
	C770.074829,163.836914 770.151428,166.171188 769.363647,168.427795 
	C767.728638,173.111496 764.394592,175.370682 759.488037,175.275970 
	C754.831421,175.186096 751.357849,172.281708 750.322266,167.577103 
	C750.003540,166.128876 749.927185,164.603195 749.925720,163.112808 
	C749.895752,132.449417 749.889832,101.786018 749.887939,71.122620 
	C749.887634,67.023964 750.350647,63.057743 754.047974,60.419624 
	C759.760254,56.343819 767.208923,58.874321 769.344421,65.602837 
	C770.688965,69.839233 769.840820,74.213081 770.044678,79.018219 
z"/>
<path fill="#000000" opacity="1.000000" stroke="none" 
	d="
M321.001831,121.810356 
	C317.372009,112.747726 321.186798,106.733170 330.269104,106.698318 
	C348.718781,106.627518 367.168762,106.610008 385.618622,106.607407 
	C391.378113,106.606590 395.394318,110.185204 395.709229,115.452393 
	C396.049286,121.141022 392.100037,126.057610 386.254364,126.122681 
	C367.308136,126.333603 348.358002,126.250885 329.409851,126.167892 
	C326.157257,126.153641 323.225525,124.943329 321.001831,121.810356 
z"/>
<path fill="#000000" opacity="1.000000" stroke="none" 
	d="
M716.509644,130.195190 
	C715.698486,145.560638 710.149719,158.053818 697.327454,166.552048 
	C690.417603,171.131638 682.517029,172.398331 674.401001,172.212952 
	C669.017883,172.089996 665.272095,168.343719 665.205933,163.550476 
	C665.144714,159.116470 668.793396,154.843445 673.742920,154.779648 
	C690.430359,154.564575 698.671326,144.934280 698.675110,126.089264 
	C698.676697,118.212891 703.718384,113.665871 710.049927,115.732857 
	C714.155701,117.073204 716.243835,120.051971 716.496399,124.304855 
	C716.604858,126.129555 716.517273,127.965897 716.509644,130.195190 
z"/>
<path fill="#000000" opacity="1.000000" stroke="none" 
	d="
M500.443115,229.497314 
	C498.257446,226.345993 496.276245,223.490555 493.979767,220.180756 
	C492.853729,222.133682 493.235779,223.772934 493.230438,225.298798 
	C493.193726,235.783356 493.220947,246.268143 493.183105,256.752686 
	C493.176605,258.559418 493.325623,260.806946 490.736603,260.872803 
	C488.158508,260.938416 488.096954,258.709198 488.091492,256.892883 
	C488.048767,242.580780 488.048248,228.268417 488.096039,213.956360 
	C488.101959,212.189896 487.936768,209.656403 490.424164,209.726974 
	C493.973877,209.827667 497.982544,207.963760 500.814667,212.289642 
	C506.645203,221.195312 512.810669,229.881912 518.853333,238.648300 
	C520.061218,240.400711 521.336182,242.106888 523.773743,243.650803 
	C523.773743,240.934677 523.773560,238.218567 523.773743,235.502441 
	C523.774414,228.013428 523.757202,220.524323 523.791077,213.035446 
	C523.797852,211.528900 523.861023,209.842514 525.882324,209.627579 
	C528.179504,209.383316 528.555298,211.126358 528.812073,212.842209 
	C528.910095,213.497406 528.933228,214.168869 528.933411,214.832932 
	C528.936646,228.479523 528.969788,242.126328 528.889832,255.772461 
	C528.876953,257.973358 529.376587,260.737213 526.201965,261.459930 
	C523.323242,262.115265 521.585510,260.473236 520.068420,258.229523 
	C513.639160,248.720734 507.128510,239.267029 500.443115,229.497314 
z"/>
<path fill="#000000" opacity="1.000000" stroke="none" 
	d="
M611.843506,235.291443 
	C605.331421,230.890762 602.952576,225.857361 604.395386,220.007721 
	C605.928589,213.791626 610.604675,209.661896 617.596741,208.827530 
	C623.260132,208.151703 628.920349,208.066635 634.011963,211.430832 
	C636.460632,213.048782 638.389465,215.081024 639.265564,217.887115 
	C639.965149,220.127884 641.723633,223.160721 638.031311,224.053787 
	C635.057556,224.773041 631.488770,225.627213 630.251282,220.581497 
	C628.501282,213.445923 623.417786,210.750168 617.874817,213.313141 
	C612.512573,215.792557 611.695984,222.300522 616.422546,225.848984 
	C618.130615,227.131302 620.145813,228.043457 622.103333,228.945450 
	C624.975464,230.268921 627.978516,231.313873 630.825867,232.684921 
	C638.944763,236.594391 642.131653,241.758163 641.077637,249.022171 
	C640.011780,256.368591 634.947449,260.757202 626.093689,262.007050 
	C615.891663,263.447235 607.667847,259.906219 604.432068,252.538452 
	C603.519104,250.459732 602.150085,248.062668 604.015442,245.989166 
	C605.614014,244.212189 608.084045,244.831238 610.195984,245.085342 
	C613.117676,245.436890 612.942017,247.893570 613.320862,250.025070 
	C614.228760,255.132919 617.142944,257.787079 622.133179,257.857574 
	C626.443665,257.918518 630.132690,256.483246 631.524231,251.968369 
	C632.828247,247.737518 630.699158,243.852570 625.860840,241.529434 
	C621.362854,239.369705 616.731567,237.487534 611.843506,235.291443 
z"/>
<path fill="#000000" opacity="1.000000" stroke="none" 
	d="
M488.700684,126.880173 
	C495.477997,133.749786 502.154449,140.151886 509.449463,145.945251 
	C513.192566,148.917786 513.150513,153.227600 511.006287,157.288757 
	C507.982361,163.015976 503.072388,166.547897 496.980713,168.489838 
	C494.041748,169.426727 490.875000,170.003937 488.608551,167.416534 
	C486.172546,164.635635 487.164490,161.528885 488.907379,158.651077 
	C489.327759,157.956970 489.698944,157.233047 490.219055,156.295105 
	C485.746338,151.789429 480.613098,148.064560 476.966614,142.868332 
	C473.357422,137.725250 472.787079,134.079010 475.918304,130.163345 
	C479.133331,126.142921 483.349792,124.778778 488.700684,126.880173 
z"/>
<path fill="#000000" opacity="1.000000" stroke="none" 
	d="
M319.573181,213.619202 
	C320.793152,211.246689 321.438110,208.768158 324.529449,209.014084 
	C327.315765,209.235764 327.750336,211.589493 328.570404,213.517136 
	C334.422852,227.274078 340.282196,241.028564 346.005371,254.839371 
	C346.774628,256.695679 349.314514,258.914246 346.266724,260.873932 
	C343.806366,262.455902 337.722290,260.902802 336.600861,258.498199 
	C335.127289,255.338409 333.816711,252.094177 332.602997,248.824295 
	C331.596252,246.112061 329.873260,244.756592 326.941376,245.098312 
	C326.777283,245.117447 326.608948,245.104462 326.442749,245.100662 
	C313.124664,244.795914 313.124115,244.795609 307.878754,256.874359 
	C307.614014,257.484009 307.387390,258.110413 307.116974,258.717407 
	C305.894226,261.461945 303.529144,261.787018 301.278931,260.742523 
	C298.827942,259.604858 300.394775,257.546448 301.064392,256.001099 
	C307.142883,241.973480 313.289215,227.975250 319.573181,213.619202 
M324.145172,227.423157 
	C323.444672,225.661362 323.097565,223.691498 321.131775,222.094910 
	C318.962402,228.010986 316.095947,233.252960 315.013397,239.519897 
	C319.556458,240.272171 323.696320,240.431351 327.955170,239.326202 
	C327.719666,235.019974 325.448059,231.760376 324.145172,227.423157 
z"/>
<path fill="#000000" opacity="1.000000" stroke="none" 
	d="
M547.720215,232.993668 
	C547.716064,226.996964 547.854004,221.494095 547.662415,216.002731 
	C547.523071,212.007614 547.961060,209.413849 553.126648,209.398697 
	C558.660522,209.382477 557.838989,212.939636 557.876648,216.129288 
	C557.990723,225.790894 557.791382,235.459000 558.056213,245.115189 
	C558.296997,253.892746 563.439148,258.029907 572.147156,256.966248 
	C578.431641,256.198639 582.628967,251.845383 582.809631,245.172409 
	C583.071106,235.516525 582.950073,225.850327 582.997864,216.188568 
	C583.004456,214.856659 582.961914,213.517090 583.089417,212.195251 
	C583.226074,210.777557 583.794861,209.526917 585.481323,209.523804 
	C587.331726,209.520416 588.174011,210.694382 588.201111,212.420013 
	C588.261230,216.250778 588.260681,220.082733 588.258606,223.914169 
	C588.254944,230.911499 588.309021,237.910065 588.197815,244.905853 
	C588.062012,253.444382 583.214661,259.365845 574.935913,261.347076 
	C558.559814,265.266113 548.006775,257.175049 547.745605,240.489731 
	C547.709106,238.157730 547.728027,235.824890 547.720215,232.993668 
z"/>
<path fill="#000000" opacity="1.000000" stroke="none" 
	d="
M418.112915,217.176422 
	C418.120789,228.647812 418.364075,239.649506 418.028931,250.633530 
	C417.877899,255.583710 419.650604,257.114349 424.333405,256.737610 
	C428.306061,256.417969 432.324921,256.600739 436.321045,256.679718 
	C437.936340,256.711609 440.001038,256.635590 439.929779,259.050415 
	C439.870422,261.060791 438.080048,261.175446 436.578308,261.180786 
	C428.249603,261.210449 419.920654,261.167236 411.591858,261.180603 
	C408.825470,261.185059 407.742554,259.739044 407.745544,257.117004 
	C407.762024,242.624420 407.810028,228.131409 407.715088,213.639420 
	C407.685791,209.163879 410.741913,209.853607 413.531616,209.555405 
	C416.789764,209.207108 418.251221,210.450760 418.093658,213.701599 
	C418.045349,214.698273 418.103241,215.700058 418.112915,217.176422 
z"/>
<path fill="#000000" opacity="1.000000" stroke="none" 
	d="
M392.203857,261.105743 
	C383.457825,261.186798 375.131653,261.144562 366.806915,261.233673 
	C363.751129,261.266388 362.081177,260.173187 362.132568,256.918732 
	C362.374390,241.612289 362.577606,226.305267 362.816986,210.998795 
	C362.821564,210.708313 363.100586,210.422119 363.257141,210.136856 
	C371.470154,208.344574 372.187286,208.906662 372.188110,217.174088 
	C372.189178,228.164764 372.155518,239.155548 372.191345,250.146103 
	C372.212372,256.597504 372.446442,256.859741 379.052673,256.617432 
	C383.212006,256.464874 387.381012,256.047241 391.505219,256.701324 
	C394.771637,257.219391 395.729858,258.692200 392.203857,261.105743 
z"/>
<path fill="#000000" opacity="1.000000" stroke="none" 
	d="
M192.621231,245.994537 
	C192.611694,236.166275 192.582901,226.836929 192.635544,217.508026 
	C192.644287,215.958511 192.165405,213.823532 194.637009,213.643600 
	C197.397598,213.442612 197.270493,215.629456 197.285416,217.456146 
	C197.327362,222.586075 197.300064,227.716583 197.300064,233.702759 
	C207.368851,229.363632 216.250992,228.763626 222.075119,239.074829 
	C225.236954,244.672638 223.587311,253.349014 219.061127,257.617310 
	C214.006271,262.384125 206.571899,262.842651 198.509476,258.824921 
	C196.997665,259.253723 196.176498,261.909363 193.940155,260.517273 
	C192.149673,259.402740 192.692032,257.573761 192.649170,255.988190 
	C192.563675,252.825455 192.627243,249.658676 192.621231,245.994537 
M202.589523,255.082657 
	C209.614731,257.843781 215.497070,255.966949 217.581665,250.299179 
	C219.831848,244.181290 217.227432,238.167938 211.395096,236.014969 
	C206.726105,234.291412 201.564011,236.376389 198.700211,241.142365 
	C195.929077,245.754120 196.969833,250.098724 202.589523,255.082657 
z"/>
<path fill="#000000" opacity="1.000000" stroke="none" 
	d="
M455.859711,232.000107 
	C455.858459,225.686554 455.963989,219.870300 455.819733,214.060257 
	C455.719543,210.024460 458.011566,209.644592 461.258484,209.554977 
	C464.741302,209.458847 465.420593,211.051468 465.411804,214.071701 
	C465.370697,228.189255 465.430237,242.307663 465.561188,256.424774 
	C465.591248,259.664703 464.681763,261.351105 461.042877,261.265442 
	C457.609955,261.184662 455.748444,260.215820 455.811798,256.418243 
	C455.944794,248.447479 455.857056,240.473007 455.859711,232.000107 
z"/>
<path fill="#000000" opacity="1.000000" stroke="none" 
	d="
M231.855789,231.668823 
	C235.508026,233.541962 235.701569,237.161057 236.986862,240.129852 
	C238.626236,243.916428 240.119278,247.766357 242.196014,252.867859 
	C244.728424,246.333160 246.891541,240.892441 248.939377,235.408676 
	C249.991089,232.592346 251.330063,230.575806 254.739380,232.122498 
	C255.369385,232.874542 255.316254,233.684586 255.002930,234.483459 
	C250.516693,245.922226 246.120590,257.397919 241.482010,268.774719 
	C239.273285,274.191895 235.253296,276.411926 231.087234,275.174377 
	C229.637665,274.743774 228.737411,273.966217 228.858673,272.362152 
	C228.944641,271.224945 229.591568,270.746246 230.724960,270.443359 
	C237.156143,268.724487 240.178391,262.874512 237.776031,256.550171 
	C235.124512,249.569855 232.312012,242.648712 229.451874,235.750626 
	C228.470627,233.384048 227.791794,231.489243 231.855789,231.668823 
z"/>
<path fill="#000000" opacity="1.000000" stroke="none" 
	d="
M687.232483,134.390930 
	C680.124878,137.715424 676.082764,135.951157 674.175110,128.993835 
	C673.387329,126.120636 672.575073,123.228012 672.140991,120.290009 
	C671.461487,115.691429 674.200806,112.121841 678.719604,111.274643 
	C682.386169,110.587234 686.078125,113.051674 687.224426,117.177238 
	C688.197693,120.679977 689.107666,124.219246 689.712585,127.798630 
	C690.109253,130.145462 689.348999,132.393677 687.232483,134.390930 
z"/>
<path fill="#000000" opacity="1.000000" stroke="none" 
	d="
M666.933838,137.675934 
	C660.895020,143.730042 654.784058,142.226135 652.607361,134.423141 
	C651.720703,131.244415 650.985229,127.959938 650.740417,124.681801 
	C650.434082,120.580490 652.372009,117.580605 656.594177,116.641640 
	C660.799927,115.706352 663.966919,117.445847 665.250610,121.428719 
	C666.901306,126.550011 669.279785,131.706436 666.933838,137.675934 
z"/>
<path fill="#000000" opacity="1.000000" stroke="none" 
	d="
M412.378967,289.947540 
	C412.278564,291.877319 412.293640,293.545349 410.289551,293.785309 
	C407.549622,294.113403 408.118652,291.375000 407.023712,289.981812 
	C403.867859,290.118713 401.891907,294.330658 397.823547,292.807281 
	C399.298492,289.399658 403.283783,288.101440 403.986694,284.422302 
	C402.553680,282.739868 399.519073,284.876526 398.487427,282.219696 
	C398.941986,280.335419 400.500275,280.749756 401.716797,280.711792 
	C404.487122,280.625305 407.259003,281.232758 408.230896,277.190338 
	C408.700562,275.236786 411.351959,275.280243 411.894073,277.282562 
	C412.592896,279.863861 414.669922,280.600647 417.216583,282.228516 
	C412.676453,283.368011 411.874542,286.108917 412.378967,289.947540 
z"/>
<path fill="#000000" opacity="1.000000" stroke="none" 
	d="
M549.062927,280.625305 
	C548.250427,283.033539 547.466248,285.036346 546.677673,287.050446 
	C547.880676,289.735748 552.318970,288.905975 552.541809,292.589813 
	C550.940186,294.629761 548.832153,294.499268 547.392029,292.891022 
	C544.839111,290.040039 542.815979,290.622986 540.255432,292.790802 
	C539.133362,293.740814 537.382019,294.629303 535.454529,292.868683 
	C537.378662,288.883026 542.584595,286.832397 542.851746,281.878479 
	C540.722900,279.988159 537.154114,282.573273 535.772888,279.176208 
	C540.563354,276.741974 546.569519,277.256134 549.062927,280.625305 
z"/>
<path fill="#000000" opacity="1.000000" stroke="none" 
	d="
M496.586548,279.581055 
	C496.845856,277.632904 497.186615,276.147430 499.164062,276.079315 
	C501.004028,276.015900 501.995697,277.161499 502.045166,278.834351 
	C502.182007,283.463806 507.352478,280.460632 509.181976,284.234711 
	C503.077362,283.117126 501.641144,287.327271 499.777924,291.304718 
	C498.932220,293.109985 497.301239,294.465088 494.691406,293.391022 
	C494.056152,290.567657 497.110321,288.328949 496.139008,285.417755 
	C494.254822,283.179199 490.868195,285.809814 488.899689,283.314453 
	C490.641876,280.239441 495.102051,283.509552 496.586548,279.581055 
z"/>
<path fill="#000000" opacity="1.000000" stroke="none" 
	d="
M455.674805,286.317200 
	C455.819733,283.577637 455.850006,281.248322 456.040649,278.932190 
	C456.141144,277.710999 456.774780,276.706665 458.130127,276.474701 
	C459.221222,276.287903 460.055725,276.753387 460.664734,277.654907 
	C462.740753,280.728180 460.807098,290.912201 457.673737,293.022675 
	C456.433502,293.858032 455.042206,294.571838 453.539490,293.191040 
	C453.213745,290.734985 455.600250,289.097992 455.674805,286.317200 
z"/>
<path fill="#000000" opacity="1.000000" stroke="none" 
	d="
M446.789337,286.473816 
	C446.718903,283.897980 446.679260,281.752106 446.687836,279.606445 
	C446.694183,278.019043 447.012604,276.512543 448.967255,276.397369 
	C451.128326,276.270020 451.831390,277.807709 451.906158,279.595825 
	C451.995605,281.733307 452.194611,283.954010 451.744995,286.007050 
	C450.937256,289.695221 449.085236,289.917572 446.789337,286.473816 
z"/>
<path fill="#000000" opacity="1.000000" stroke="none" 
	d="
M108.285675,149.566574 
	C99.948357,153.641327 92.502213,152.699478 85.759064,146.954590 
	C83.570099,145.089691 81.393326,142.675171 83.943558,139.770294 
	C86.182610,137.219864 88.622986,138.547241 90.971519,140.262436 
	C97.695137,145.172897 101.985855,144.810120 107.966072,138.863571 
	C110.111206,136.730515 112.422867,135.572021 114.860100,137.895020 
	C117.171150,140.097748 115.973656,142.465469 114.199265,144.487152 
	C112.557953,146.357224 110.845360,148.168350 108.285675,149.566574 
z"/>
<path fill="#000000" opacity="1.000000" stroke="none" 
	d="
M120.211082,120.182373 
	C119.290840,125.469818 116.556564,127.874565 112.801208,127.133995 
	C109.264030,126.436455 107.039322,122.890717 107.909828,119.209000 
	C108.598610,116.295792 110.463089,114.678238 113.496735,114.505341 
	C117.277428,114.289864 119.302597,116.306335 120.211082,120.182373 
z"/>
<path fill="#000000" opacity="1.000000" stroke="none" 
	d="
M77.393936,117.307953 
	C79.827919,114.377197 82.630722,113.802277 85.662407,115.181465 
	C88.130058,116.304062 89.433228,118.472267 89.186989,121.226570 
	C88.943924,123.945244 87.276535,125.767143 84.810318,126.805618 
	C82.613243,127.730766 80.606552,127.291618 78.795929,125.748863 
	C76.096275,123.448601 76.164513,120.627068 77.393936,117.307953 
z"/>
</svg>